<svg width="20" height="20" viewBox="0 0 20 20" fill="none" xmlns="http://www.w3.org/2000/svg">
<path d="M3.0498 4.05753V16.0428C3.05159 16.0442 3.05407 16.0458 3.05725 16.0471C3.06097 16.0487 3.0665 16.0502 3.0748 16.0502H17.0248C17.0331 16.0502 17.0386 16.0487 17.0424 16.0471C17.0455 16.0458 17.048 16.0443 17.0498 16.0428V4.05753C17.048 4.05609 17.0455 4.05452 17.0424 4.05321C17.0386 4.05169 17.0331 4.05017 17.0248 4.05017H3.0748C3.0665 4.05017 3.06097 4.05169 3.05725 4.05321C3.05407 4.05452 3.05159 4.05609 3.0498 4.05753ZM1.5498 4.05017C1.5498 3.19875 2.25594 2.55017 3.0748 2.55017H17.0248C17.8437 2.55017 18.5498 3.19875 18.5498 4.05017V16.0502C18.5498 16.9016 17.8437 17.5502 17.0248 17.5502H3.0748C2.25594 17.5502 1.5498 16.9016 1.5498 16.0502V4.05017Z" fill="#102048"/>
<path d="M1.5498 7.80017C1.5498 7.38596 1.88559 7.05017 2.2998 7.05017H17.2998C17.714 7.05017 18.0498 7.38596 18.0498 7.80017C18.0498 8.21438 17.714 8.55017 17.2998 8.55017H2.2998C1.88559 8.55017 1.5498 8.21438 1.5498 7.80017Z" fill="#102048"/>
<path d="M7.3623 7.05017C7.77652 7.05017 8.1123 7.38596 8.1123 7.80017V16.6002C8.1123 17.0144 7.77652 17.3502 7.3623 17.3502C6.94809 17.3502 6.6123 17.0144 6.6123 16.6002V7.80017C6.6123 7.38596 6.94809 7.05017 7.3623 7.05017Z" fill="#102048"/>
<path d="M12.2372 7.05017C12.6515 7.05017 12.9872 7.38596 12.9872 7.80017V16.6002C12.9872 17.0144 12.6515 17.3502 12.2372 17.3502C11.823 17.3502 11.4872 17.0144 11.4872 16.6002V7.80017C11.4872 7.38596 11.823 7.05017 12.2372 7.05017Z" fill="#102048"/>
<path d="M1.5498 12.3002C1.5498 11.886 1.88559 11.5502 2.2998 11.5502H17.2998C17.714 11.5502 18.0498 11.886 18.0498 12.3002C18.0498 12.7144 17.714 13.0502 17.2998 13.0502H2.2998C1.88559 13.0502 1.5498 12.7144 1.5498 12.3002Z" fill="#102048"/>
</svg>
