<svg width="100" height="69" viewBox="0 0 100 69" fill="none" xmlns="http://www.w3.org/2000/svg">
<path d="M21.0527 13.158C21.0527 11.7046 22.2309 10.5264 23.6843 10.5264H76.3159C77.7693 10.5264 78.9475 11.7046 78.9475 13.1579V48.6843C78.9475 50.1376 77.7693 51.3158 76.3159 51.3158H23.6843C22.2309 51.3158 21.0527 50.1376 21.0527 48.6843V13.158Z" fill="url(#paint0_linear_801_1644)"/>
<path d="M21.0527 18.421C21.0527 16.9676 22.2309 15.7894 23.6843 15.7894H76.3159C77.7693 15.7894 78.9475 16.9676 78.9475 18.421V50C78.9475 51.4533 77.7693 52.6315 76.3159 52.6315H23.6843C22.2309 52.6315 21.0527 51.4533 21.0527 50V18.421Z" fill="url(#paint1_linear_801_1644)"/>
<rect x="26.3164" y="21.0526" width="10.5263" height="1.97368" rx="0.657895" fill="#6186FB"/>
<path fill-rule="evenodd" clip-rule="evenodd" d="M13.157 39.4736C12.7936 39.4736 12.4991 39.7682 12.4991 40.1315V41.4473H11.1833C10.8199 41.4473 10.5254 41.7419 10.5254 42.1052C10.5254 42.4686 10.8199 42.7631 11.1833 42.7631H12.4991V44.0789C12.4991 44.4422 12.7936 44.7368 13.157 44.7368C13.5203 44.7368 13.8149 44.4422 13.8149 44.0789V42.7631H15.1307C15.494 42.7631 15.7885 42.4686 15.7885 42.1052C15.7885 41.7419 15.494 41.4473 15.1307 41.4473H13.8149V40.1315C13.8149 39.7682 13.5203 39.4736 13.157 39.4736Z" fill="#7A9DFD"/>
<rect x="26.3164" y="43.421" width="7.89474" height="2.63158" rx="0.657895" fill="#F1F5FF"/>
<rect x="26.3164" y="26.3158" width="6.57895" height="11.8421" rx="0.657895" fill="#F1F5FF"/>
<rect x="39.4746" y="43.421" width="7.89474" height="2.63158" rx="0.657895" fill="#F1F5FF"/>
<rect x="52.6309" y="43.421" width="7.89474" height="2.63158" rx="0.657895" fill="#F1F5FF"/>
<rect x="65.7891" y="43.421" width="7.89474" height="2.63158" rx="0.657895" fill="#F1F5FF"/>
<rect x="35.5254" y="26.3158" width="13.1579" height="2.63158" rx="0.657895" fill="#F1F5FF"/>
<rect x="35.5254" y="30.921" width="13.1579" height="2.63158" rx="0.657895" fill="#F1F5FF"/>
<rect x="35.5254" y="35.5264" width="13.1579" height="2.63158" rx="0.657895" fill="#F1F5FF"/>
<rect opacity="0.01" x="57.8945" y="23.0264" width="17.1053" height="17.1053" fill="#D8D8D8"/>
<path fill-rule="evenodd" clip-rule="evenodd" d="M65.9142 25.3624C62.3085 25.4798 59.373 28.487 59.373 32.1185C59.373 35.8233 62.428 38.8782 66.1328 38.8782C69.7784 38.8782 72.7946 35.9203 72.8902 32.2958C72.8918 32.2369 72.8902 32.1185 72.6958 32.1185C70.5081 32.1185 66.1328 32.1185 66.1328 32.1185C66.1328 32.1185 66.1328 27.7653 66.1328 25.5887C66.1328 25.3853 65.9868 25.3601 65.9142 25.3624Z" fill="#F1F5FF"/>
<path fill-rule="evenodd" clip-rule="evenodd" d="M67.5625 24.2209C67.5625 26.0585 67.5625 29.4625 67.5625 30.4276C67.5625 30.5729 67.6783 30.6888 67.8236 30.6888C68.793 30.6888 72.2245 30.6888 74.0764 30.6888C74.3161 30.6888 74.3202 30.4963 74.3161 30.4008C74.1681 26.9495 71.3733 24.1289 67.9321 23.9392C67.8097 23.9324 67.5625 23.9324 67.5625 24.2209Z" fill="#81A5FD"/>
<path d="M77.1387 36.9017C77.8121 38.0594 79.494 38.0715 80.1637 36.9115C80.7562 35.8853 82.0747 35.5374 83.1087 36.1343L84.9808 37.2152C86.0148 37.8122 86.3727 39.1281 85.7803 40.1543C85.1106 41.3142 85.9619 42.7647 87.3013 42.7691C88.493 42.7729 89.4622 43.7385 89.4661 44.9257L89.4731 47.0753C89.477 48.2625 88.5141 49.2218 87.3224 49.2179C85.9831 49.2135 85.145 50.6651 85.8185 51.8228C86.4177 52.8529 86.0684 54.1665 85.0383 54.7567L83.1732 55.8254C82.1431 56.4156 80.8222 56.0591 80.223 55.029C79.5496 53.8712 77.8677 53.8592 77.198 55.0191C76.6056 56.0453 75.2871 56.3933 74.2531 55.7963L72.3809 54.7154C71.3469 54.1184 70.989 52.8026 71.5815 51.7764C72.2512 50.6164 71.3998 49.1659 70.0604 49.1616C68.8687 49.1577 67.8995 48.1921 67.8956 47.0049L67.8886 44.8553C67.8847 43.6681 68.8476 42.7088 70.0393 42.7127C71.3787 42.7171 72.2167 41.2655 71.5432 40.1078C70.944 39.0777 71.2933 37.7642 72.3234 37.1739L74.1886 36.1052C75.2187 35.515 76.5395 35.8716 77.1387 36.9017Z" fill="url(#paint2_radial_801_1644)"/>
<path d="M82.0703 46.0615C82.0703 47.7718 80.6838 49.1583 78.9735 49.1583C77.2631 49.1583 75.8766 47.7718 75.8766 46.0615C75.8766 44.3512 77.2631 42.9647 78.9735 42.9647C80.6838 42.9647 82.0703 44.3512 82.0703 46.0615Z" stroke="white" stroke-width="1.31579" stroke-linecap="round" stroke-linejoin="round"/>
<g filter="url(#filter0_f_801_1644)">
<ellipse cx="49.9994" cy="63.1579" rx="26.3158" ry="2.63158" fill="url(#paint3_radial_801_1644)"/>
</g>
<circle cx="2.63158" cy="34.2106" r="1.97368" stroke="#8FB0FE" stroke-width="1.31579"/>
<circle cx="84.2097" cy="2.63158" r="1.97368" stroke="#B5BCF6" stroke-opacity="0.4" stroke-width="1.31579"/>
<defs>
<filter id="filter0_f_801_1644" x="21.052" y="57.8948" width="57.894" height="10.5263" filterUnits="userSpaceOnUse" color-interpolation-filters="sRGB">
<feFlood flood-opacity="0" result="BackgroundImageFix"/>
<feBlend mode="normal" in="SourceGraphic" in2="BackgroundImageFix" result="shape"/>
<feGaussianBlur stdDeviation="1.31579" result="effect1_foregroundBlur_801_1644"/>
</filter>
<linearGradient id="paint0_linear_801_1644" x1="50.0001" y1="11.8422" x2="50.0001" y2="53.9474" gradientUnits="userSpaceOnUse">
<stop stop-color="#5077F9"/>
<stop offset="1" stop-color="#658BEF" stop-opacity="0"/>
</linearGradient>
<linearGradient id="paint1_linear_801_1644" x1="50.0001" y1="15.7894" x2="50.0001" y2="51.3157" gradientUnits="userSpaceOnUse">
<stop stop-color="#CDDBFF"/>
<stop offset="1" stop-color="#AEC8FC"/>
</linearGradient>
<radialGradient id="paint2_radial_801_1644" cx="0" cy="0" r="1" gradientUnits="userSpaceOnUse" gradientTransform="translate(85.8547 52.6317) rotate(-150.852) scale(19.5855 13.551)">
<stop stop-color="#4369F2"/>
<stop offset="1" stop-color="#799EFD"/>
</radialGradient>
<radialGradient id="paint3_radial_801_1644" cx="0" cy="0" r="1" gradientUnits="userSpaceOnUse" gradientTransform="translate(49.9994 63.1579) rotate(90) scale(3.61842 36.1842)">
<stop stop-color="#7AA7FF"/>
<stop offset="1" stop-color="#D0E0FF" stop-opacity="0"/>
</radialGradient>
</defs>
</svg>
