<?xml version="1.0" encoding="UTF-8"?>
<svg width="70px" height="70px" viewBox="0 0 70 70" version="1.1" xmlns="http://www.w3.org/2000/svg" xmlns:xlink="http://www.w3.org/1999/xlink">
    <!-- Generator: Sketch 46.2 (44496) - http://www.bohemiancoding.com/sketch -->
    <title>ic-excel</title>
    <desc>Created with Sketch.</desc>
    <defs></defs>
    <g id="数据源" stroke="none" stroke-width="1" fill="none" fill-rule="evenodd">
        <g id="有数3.6数据连接" transform="translate(-818.000000, -359.000000)" fill-rule="nonzero" fill="#8F8F8F">
            <g id="Group-17" transform="translate(464.000000, 232.000000)">
                <g id="Group-10" transform="translate(354.000000, 127.000000)">
                    <path d="M44,47.7023252 L50,47.7023252 L50,50.7023252 L44,50.7023252 L44,58.7023252 L67,58.7023252 L67,10.7023252 L44,10.7023252 L44,17.7023252 L50,17.7023252 L50,20.7023252 L44,20.7023252 L44,27.7023252 L50,27.7023252 L50,30.7023252 L44,30.7023252 L44,37.7023252 L50,37.7023252 L50,40.7023252 L44,40.7023252 L44,47.7023252 L44,47.7023252 Z M44,7.70232516 L68,7.70232516 C69.1045695,7.70232516 70,8.59775566 70,9.70232516 L70,59.7023252 C70,60.8068947 69.1045695,61.7023252 68,61.7023252 L44,61.7023252 L44,67.7023252 C44,68.8068947 43.1045695,69.5572367 42,69.3782609 L2,62.8969762 C0.8954305,62.7180005 0,61.8598785 0,60.980307 L0,8.42434326 C0,7.54477183 0.8954305,6.6866498 2,6.50767407 L42,0.0263893903 C43.1045695,-0.152586344 44,0.597755657 44,1.70232516 L44,7.70232516 Z M22,29.0046762 L25.4549012,22.7023252 L32,22.7023252 L25.2725494,34.9743855 L32,47.2464458 L25.4549012,47.2464458 L22,40.9440947 L18.5450988,47.2464458 L12,47.2464458 L18.7274506,34.9743855 L12,22.7023252 L18.5450988,22.7023252 L22,29.0046762 Z M3,60.0198819 L41,66.1771023 L41,3.22754797 L3,9.38476841 L3,60.0198819 Z M53,17.7023252 L64,17.7023252 L64,20.7023252 L53,20.7023252 L53,17.7023252 Z M53,27.7023252 L64,27.7023252 L64,30.7023252 L53,30.7023252 L53,27.7023252 Z M53,37.7023252 L64,37.7023252 L64,40.7023252 L53,40.7023252 L53,37.7023252 Z M53,47.7023252 L64,47.7023252 L64,50.7023252 L53,50.7023252 L53,47.7023252 Z" id="excel"></path>
                </g>
            </g>
        </g>
    </g>
</svg>