<svg width="203" height="124" viewBox="0 0 203 124" fill="none" xmlns="http://www.w3.org/2000/svg">
<g clip-path="url(#clip0_1554_7959)">
<rect width="202" height="124" transform="translate(0.5)" fill="white" fill-opacity="0.2"/>
<circle cx="13" cy="62" r="11" stroke="#BCD1E9" stroke-width="2"/>
<circle cx="67" cy="62" r="11" stroke="#BCD1E9" stroke-width="2"/>
<circle cx="154" cy="62" r="11" stroke="#BCD1E9" stroke-width="2"/>
<circle cx="111" cy="26" r="11" stroke="#BCD1E9" stroke-width="2"/>
<circle cx="111" cy="98" r="11" stroke="#BCD1E9" stroke-width="2"/>
<path d="M25 61.4C24.6686 61.4 24.4 61.6686 24.4 62C24.4 62.3314 24.6686 62.6 25 62.6V61.4ZM55 62L49 58.5359V65.4641L55 62ZM26 62.6C26.3314 62.6 26.6 62.3314 26.6 62C26.6 61.6686 26.3314 61.4 26 61.4V62.6ZM30 61.4C29.6686 61.4 29.4 61.6686 29.4 62C29.4 62.3314 29.6686 62.6 30 62.6V61.4ZM32 62.6C32.3314 62.6 32.6 62.3314 32.6 62C32.6 61.6686 32.3314 61.4 32 61.4V62.6ZM36 61.4C35.6686 61.4 35.4 61.6686 35.4 62C35.4 62.3314 35.6686 62.6 36 62.6V61.4ZM38 62.6C38.3314 62.6 38.6 62.3314 38.6 62C38.6 61.6686 38.3314 61.4 38 61.4V62.6ZM42 61.4C41.6686 61.4 41.4 61.6686 41.4 62C41.4 62.3314 41.6686 62.6 42 62.6V61.4ZM44 62.6C44.3314 62.6 44.6 62.3314 44.6 62C44.6 61.6686 44.3314 61.4 44 61.4V62.6ZM48 61.4C47.6686 61.4 47.4 61.6686 47.4 62C47.4 62.3314 47.6686 62.6 48 62.6V61.4ZM50 62.6C50.3314 62.6 50.6 62.3314 50.6 62C50.6 61.6686 50.3314 61.4 50 61.4V62.6ZM54 61.4C53.6686 61.4 53.4 61.6686 53.4 62C53.4 62.3314 53.6686 62.6 54 62.6V61.4ZM25 62.6H26V61.4H25V62.6ZM30 62.6H32V61.4H30V62.6ZM36 62.6H38V61.4H36V62.6ZM42 62.6H44V61.4H42V62.6ZM48 62.6H50V61.4H48V62.6Z" fill="#BCD1E9"/>
<path d="M67 26V25.4H66.4V26H67ZM99 26L93 22.5359V29.4641L99 26ZM66.4 50C66.4 50.3314 66.6686 50.6 67 50.6C67.3314 50.6 67.6 50.3314 67.6 50H66.4ZM67.6 49C67.6 48.6686 67.3314 48.4 67 48.4C66.6686 48.4 66.4 48.6686 66.4 49H67.6ZM66.4 45C66.4 45.3314 66.6686 45.6 67 45.6C67.3314 45.6 67.6 45.3314 67.6 45H66.4ZM67.6 43C67.6 42.6686 67.3314 42.4 67 42.4C66.6686 42.4 66.4 42.6686 66.4 43H67.6ZM66.4 39C66.4 39.3314 66.6686 39.6 67 39.6C67.3314 39.6 67.6 39.3314 67.6 39H66.4ZM67.6 37C67.6 36.6686 67.3314 36.4 67 36.4C66.6686 36.4 66.4 36.6686 66.4 37H67.6ZM66.4 33C66.4 33.3314 66.6686 33.6 67 33.6C67.3314 33.6 67.6 33.3314 67.6 33H66.4ZM67.6 31C67.6 30.6686 67.3314 30.4 67 30.4C66.6686 30.4 66.4 30.6686 66.4 31H67.6ZM66.4 27C66.4 27.3314 66.6686 27.6 67 27.6C67.3314 27.6 67.6 27.3314 67.6 27H66.4ZM68.0667 26.6C68.398 26.6 68.6667 26.3314 68.6667 26C68.6667 25.6686 68.398 25.4 68.0667 25.4V26.6ZM72.3333 25.4C72.002 25.4 71.7333 25.6686 71.7333 26C71.7333 26.3314 72.002 26.6 72.3333 26.6V25.4ZM74.4667 26.6C74.798 26.6 75.0667 26.3314 75.0667 26C75.0667 25.6686 74.798 25.4 74.4667 25.4V26.6ZM78.7333 25.4C78.402 25.4 78.1333 25.6686 78.1333 26C78.1333 26.3314 78.402 26.6 78.7333 26.6V25.4ZM80.8667 26.6C81.198 26.6 81.4667 26.3314 81.4667 26C81.4667 25.6686 81.198 25.4 80.8667 25.4V26.6ZM85.1333 25.4C84.802 25.4 84.5333 25.6686 84.5333 26C84.5333 26.3314 84.802 26.6 85.1333 26.6V25.4ZM87.2667 26.6C87.598 26.6 87.8667 26.3314 87.8667 26C87.8667 25.6686 87.598 25.4 87.2667 25.4V26.6ZM91.5333 25.4C91.202 25.4 90.9333 25.6686 90.9333 26C90.9333 26.3314 91.202 26.6 91.5333 26.6V25.4ZM93.6667 26.6C93.998 26.6 94.2667 26.3314 94.2667 26C94.2667 25.6686 93.998 25.4 93.6667 25.4V26.6ZM97.9333 25.4C97.602 25.4 97.3333 25.6686 97.3333 26C97.3333 26.3314 97.602 26.6 97.9333 26.6V25.4ZM67.6 50V49H66.4V50H67.6ZM67.6 45V43H66.4V45H67.6ZM67.6 39V37H66.4V39H67.6ZM67.6 33V31H66.4V33H67.6ZM67.6 27V26H66.4V27H67.6ZM67 26.6H68.0667V25.4H67V26.6ZM72.3333 26.6H74.4667V25.4H72.3333V26.6ZM78.7333 26.6H80.8667V25.4H78.7333V26.6ZM85.1333 26.6H87.2667V25.4H85.1333V26.6ZM91.5333 26.6H93.6667V25.4H91.5333V26.6Z" fill="#BCD1E9"/>
<path d="M67 98V98.6H66.4V98H67ZM99 98L93 101.464V94.5359L99 98ZM66.4 74C66.4 73.6686 66.6686 73.4 67 73.4C67.3314 73.4 67.6 73.6686 67.6 74H66.4ZM67.6 75C67.6 75.3314 67.3314 75.6 67 75.6C66.6686 75.6 66.4 75.3314 66.4 75H67.6ZM66.4 79C66.4 78.6686 66.6686 78.4 67 78.4C67.3314 78.4 67.6 78.6686 67.6 79H66.4ZM67.6 81C67.6 81.3314 67.3314 81.6 67 81.6C66.6686 81.6 66.4 81.3314 66.4 81H67.6ZM66.4 85C66.4 84.6686 66.6686 84.4 67 84.4C67.3314 84.4 67.6 84.6686 67.6 85H66.4ZM67.6 87C67.6 87.3314 67.3314 87.6 67 87.6C66.6686 87.6 66.4 87.3314 66.4 87H67.6ZM66.4 91C66.4 90.6686 66.6686 90.4 67 90.4C67.3314 90.4 67.6 90.6686 67.6 91H66.4ZM67.6 93C67.6 93.3314 67.3314 93.6 67 93.6C66.6686 93.6 66.4 93.3314 66.4 93H67.6ZM66.4 97C66.4 96.6686 66.6686 96.4 67 96.4C67.3314 96.4 67.6 96.6686 67.6 97H66.4ZM68.0667 97.4C68.398 97.4 68.6667 97.6686 68.6667 98C68.6667 98.3314 68.398 98.6 68.0667 98.6V97.4ZM72.3333 98.6C72.002 98.6 71.7333 98.3314 71.7333 98C71.7333 97.6686 72.002 97.4 72.3333 97.4V98.6ZM74.4667 97.4C74.798 97.4 75.0667 97.6686 75.0667 98C75.0667 98.3314 74.798 98.6 74.4667 98.6V97.4ZM78.7333 98.6C78.402 98.6 78.1333 98.3314 78.1333 98C78.1333 97.6686 78.402 97.4 78.7333 97.4V98.6ZM80.8667 97.4C81.198 97.4 81.4667 97.6686 81.4667 98C81.4667 98.3314 81.198 98.6 80.8667 98.6V97.4ZM85.1333 98.6C84.802 98.6 84.5333 98.3314 84.5333 98C84.5333 97.6686 84.802 97.4 85.1333 97.4V98.6ZM87.2667 97.4C87.598 97.4 87.8667 97.6686 87.8667 98C87.8667 98.3314 87.598 98.6 87.2667 98.6V97.4ZM91.5333 98.6C91.202 98.6 90.9333 98.3314 90.9333 98C90.9333 97.6686 91.202 97.4 91.5333 97.4V98.6ZM93.6667 97.4C93.998 97.4 94.2667 97.6686 94.2667 98C94.2667 98.3314 93.998 98.6 93.6667 98.6V97.4ZM97.9333 98.6C97.602 98.6 97.3333 98.3314 97.3333 98C97.3333 97.6686 97.602 97.4 97.9333 97.4V98.6ZM67.6 74V75H66.4V74H67.6ZM67.6 79V81H66.4V79H67.6ZM67.6 85V87H66.4V85H67.6ZM67.6 91V93H66.4V91H67.6ZM67.6 97V98H66.4V97H67.6ZM67 97.4H68.0667V98.6H67V97.4ZM72.3333 97.4H74.4667V98.6H72.3333V97.4ZM78.7333 97.4H80.8667V98.6H78.7333V97.4ZM85.1333 97.4H87.2667V98.6H85.1333V97.4ZM91.5333 97.4H93.6667V98.6H91.5333V97.4Z" fill="#BCD1E9"/>
<path d="M154 26V25.4H154.6V26H154ZM123 26.6C122.669 26.6 122.4 26.3314 122.4 26C122.4 25.6686 122.669 25.4 123 25.4V26.6ZM154 50L150.536 44H157.464L154 50ZM153.4 45V43H154.6V45H153.4ZM153.4 39V37H154.6V39H153.4ZM153.4 33V31H154.6V33H153.4ZM153.4 27V26H154.6V27H153.4ZM154 26.6H152.967V25.4H154V26.6ZM148.833 26.6H146.767V25.4H148.833V26.6ZM142.633 26.6H140.567V25.4H142.633V26.6ZM136.433 26.6H134.367V25.4H136.433V26.6ZM130.233 26.6H128.167V25.4H130.233V26.6ZM124.033 26.6H123V25.4H124.033V26.6Z" fill="#BCD1E9"/>
<path d="M154 98V98.6H154.6V98H154ZM123 97.4C122.669 97.4 122.4 97.6686 122.4 98C122.4 98.3314 122.669 98.6 123 98.6V97.4ZM154 74L150.536 80H157.464L154 74ZM153.4 79V81H154.6V79H153.4ZM153.4 85V87H154.6V85H153.4ZM153.4 91V93H154.6V91H153.4ZM153.4 97V98H154.6V97H153.4ZM154 97.4H152.967V98.6H154V97.4ZM148.833 97.4H146.767V98.6H148.833V97.4ZM142.633 97.4H140.567V98.6H142.633V97.4ZM136.433 97.4H134.367V98.6H136.433V97.4ZM130.233 97.4H128.167V98.6H130.233V97.4ZM124.033 97.4H123V98.6H124.033V97.4Z" fill="#BCD1E9"/>
<path d="M166 61.25C165.586 61.25 165.25 61.5858 165.25 62C165.25 62.4142 165.586 62.75 166 62.75L166 61.25ZM203 62L195.5 57.6699L195.5 66.3301L203 62ZM166 62.75L196.25 62.75L196.25 61.25L166 61.25L166 62.75Z" fill="#5689DC"/>
</g>
<defs>
<clipPath id="clip0_1554_7959">
<rect width="202" height="124" fill="white" transform="translate(0.5)"/>
</clipPath>
</defs>
</svg>
