<svg width="78" height="58" viewBox="0 0 78 58" fill="none" xmlns="http://www.w3.org/2000/svg">
<g filter="url(#filter0_d_1859_7185)">
<rect x="4" y="2" width="70" height="49.0466" rx="2" fill="white"/>
</g>
<path d="M4 7H18V51H6C4.89543 51 4 50.1046 4 49V7Z" fill="#F8F8F8"/>
<path d="M4 4C4 2.89543 4.89543 2 6 2H72C73.1046 2 74 2.89543 74 4V7.43237H4V4Z" fill="#D8DBE0"/>
<rect x="21" y="16" width="49" height="2" rx="1" fill="#F2F3F5"/>
<rect x="24" y="29" width="30" height="1.5" rx="0.75" fill="#E3E9F1"/>
<rect x="24" y="34" width="18" height="1.5" rx="0.75" fill="#E3E9F1"/>
<rect x="24" y="39" width="24" height="1.5" rx="0.75" fill="#E3E9F1"/>
<rect x="24" y="44" width="26" height="1.5" rx="0.75" fill="#E3E9F1"/>
<rect x="64" y="44" width="6" height="1.5" rx="0.75" fill="#E3E9F1"/>
<rect x="64" y="34" width="6" height="1.5" rx="0.75" fill="#E3E9F1"/>
<rect x="64" y="39" width="6" height="1.5" rx="0.75" fill="#E3E9F1"/>
<rect x="64" y="29" width="6" height="1.5" rx="0.75" fill="#E3E9F1"/>
<rect x="21" y="20" width="49" height="6" rx="2" fill="#F2F3F5"/>
<rect x="7" y="11" width="6" height="1.24169" rx="0.620843" fill="#D9E0EC"/>
<rect x="7.19287" y="20.5986" width="6" height="1.24169" rx="0.620843" fill="#D9E0EC"/>
<rect x="7" y="29.5386" width="6" height="1.24169" rx="0.620843" fill="#D9E0EC"/>
<rect x="7" y="48" width="8" height="1" rx="0.5" fill="#D9E0EC"/>
<rect x="4" y="15" width="14" height="3" fill="#103FFA" fill-opacity="0.1"/>
<rect x="7" y="16" width="6.05322" height="1.24169" rx="0.620843" fill="#103FFA" fill-opacity="0.5"/>
<rect x="7" y="25.1929" width="6" height="1.24169" rx="0.620843" fill="#D9E0EC"/>
<circle cx="7.57006" cy="4.79418" r="0.620843" fill="white"/>
<circle cx="10.9841" cy="4.79418" r="0.620843" fill="white"/>
<circle cx="14.3992" cy="4.79418" r="0.620843" fill="white"/>
<circle cx="21.75" cy="29.75" r="0.75" fill="#5ECB33"/>
<circle cx="21.75" cy="34.75" r="0.75" fill="#5ECB33"/>
<circle cx="21.75" cy="39.75" r="0.75" fill="#F7B056"/>
<circle cx="21.75" cy="44.75" r="0.75" fill="#F14D3D"/>
<rect x="66" y="10" width="4.5" height="4.5" rx="2.25" fill="#F2F3F5"/>
<circle cx="68.25" cy="12.25" r="0.75" fill="white"/>
<circle cx="68.25" cy="14.5" r="1.5" fill="white"/>
<rect x="58" y="11" width="6" height="2" rx="1" fill="#F2F3F7"/>
<rect x="25" y="11" width="10" height="2" rx="1" fill="#DDE5EF"/>
<circle cx="22.5" cy="12" r="1.5" fill="#5ECB33"/>
<circle cx="22.5" cy="12" r="0.5" fill="white"/>
<defs>
<filter id="filter0_d_1859_7185" x="0" y="0" width="78" height="57.0466" filterUnits="userSpaceOnUse" color-interpolation-filters="sRGB">
<feFlood flood-opacity="0" result="BackgroundImageFix"/>
<feColorMatrix in="SourceAlpha" type="matrix" values="0 0 0 0 0 0 0 0 0 0 0 0 0 0 0 0 0 0 127 0" result="hardAlpha"/>
<feOffset dy="2"/>
<feGaussianBlur stdDeviation="2"/>
<feComposite in2="hardAlpha" operator="out"/>
<feColorMatrix type="matrix" values="0 0 0 0 0.470588 0 0 0 0 0.501961 0 0 0 0 0.627451 0 0 0 0.15 0"/>
<feBlend mode="normal" in2="BackgroundImageFix" result="effect1_dropShadow_1859_7185"/>
<feBlend mode="normal" in="SourceGraphic" in2="effect1_dropShadow_1859_7185" result="shape"/>
</filter>
</defs>
</svg>
