<?xml version="1.0" encoding="UTF-8"?>
<svg width="16px" height="16px" viewBox="0 0 16 16" version="1.1" xmlns="http://www.w3.org/2000/svg" xmlns:xlink="http://www.w3.org/1999/xlink">
    <!-- Generator: Sketch 44.1 (41455) - http://www.bohemiancoding.com/sketch -->
    <title>user</title>
    <desc>Created with Sketch.</desc>
    <defs></defs>
    <g id="Page-1" stroke="none" stroke-width="1" fill="none" fill-rule="evenodd">
        <g id="users" transform="translate(0.000000, 1.000000)" fill-rule="nonzero" fill="#ddd">
            <path d="M4.81331152,7.39631323 C3.93668848,7.42331516 3.21969697,7.76893742 2.66233745,8.43317952 L1.57467539,8.43317952 C1.13095224,8.43317952 0.757575758,8.32382274 0.454545455,8.10510871 C0.151515152,7.88639468 0,7.56642435 0,7.14519726 C0,5.23887532 0.335497697,4.28571435 1.00649358,4.28571435 C1.03896097,4.28571435 1.156656,4.34241774 1.3595777,4.455825 C1.56249988,4.56923226 1.82629867,4.68399 2.15097406,4.80009726 C2.47564945,4.91620452 2.79761891,4.97425839 3.11688291,4.97425839 C3.47943709,4.97425839 3.83928582,4.91215452 4.19642861,4.78794629 C4.16937212,4.98775935 4.15584436,5.16597048 4.15584436,5.32258065 C4.15584436,6.07322855 4.37500024,6.76447306 4.81331152,7.39631323 Z M13.5064936,12.5563437 C13.5064936,13.2043848 13.3089828,13.7160677 12.9139612,14.0913919 C12.5189392,14.4667156 11.9940475,14.6543777 11.3392858,14.6543777 L4.2451297,14.6543777 C3.590368,14.6543777 3.06547636,14.4667156 2.6704543,14.0913919 C2.27543273,13.7160677 2.07792194,13.2043848 2.07792194,12.5563437 C2.07792194,12.2701253 2.087392,11.9906574 2.10633115,11.71794 C2.12527079,11.4452226 2.16314958,11.1509037 2.21996752,10.8349834 C2.27678594,10.5190631 2.34848485,10.2260947 2.43506473,9.95607726 C2.52164509,9.68605984 2.63798691,9.4227929 2.78409115,9.16627645 C2.93019491,8.90976 3.09794376,8.69104645 3.2873377,8.51013484 C3.47673164,8.32922323 3.70806255,8.18476403 3.98133139,8.07675677 C4.25459976,7.96875 4.55627685,7.91474661 4.88636364,7.91474661 C4.94047612,7.91474661 5.05681842,7.97280048 5.23538958,8.08890774 C5.41396121,8.205015 5.611472,8.33462323 5.82792194,8.47773242 C6.04437236,8.62084161 6.33387442,8.75044984 6.69642861,8.86655758 C7.05898279,8.98266484 7.42424242,9.04071871 7.792208,9.04071871 C8.16017309,9.04071871 8.52543273,8.98266484 8.88798691,8.86655758 C9.25054109,8.75044984 9.54004315,8.62084161 9.75649358,8.47773242 C9.97294352,8.33462323 10.1704543,8.205015 10.3490259,8.08890774 C10.5275976,7.97280048 10.6439394,7.91474661 10.6980519,7.91474661 C11.0281387,7.91474661 11.3298162,7.96875 11.6030846,8.07675677 C11.876353,8.18476403 12.1076839,8.32922323 12.2970778,8.51013484 C12.4864718,8.69104645 12.6542206,8.90976 12.8003248,9.16627645 C12.9464286,9.4227929 13.0627704,9.68605984 13.1493508,9.95607726 C13.2359307,10.2260947 13.3076301,10.5190631 13.364448,10.8349834 C13.4212664,11.1509037 13.4591452,11.4452226 13.4780844,11.71794 C13.497024,11.9906574 13.5064936,12.2701253 13.5064936,12.5563437 Z M5.19480533,2.21198177 C5.19480533,2.78441806 4.99188315,3.27314952 4.58603879,3.67817516 C4.18019491,4.08320129 3.69047612,4.28571435 3.11688291,4.28571435 C2.54329018,4.28571435 2.05357139,4.08320129 1.64772752,3.67817516 C1.24188315,3.27314952 1.03896097,2.78441806 1.03896097,2.21198177 C1.03896097,1.639545 1.24188315,1.15081355 1.64772752,0.745787903 C2.05357139,0.340761774 2.54329018,0.13824871 3.11688291,0.13824871 C3.69047612,0.13824871 4.18019491,0.340761774 4.58603879,0.745787903 C4.99188315,1.15081355 5.19480533,1.639545 5.19480533,2.21198177 Z M10.9090909,5.32258065 C10.9090909,6.18123581 10.6047079,6.91433274 9.99594133,7.52187145 C9.38717527,8.12941016 8.65259733,8.43317952 7.792208,8.43317952 C6.93181818,8.43317952 6.19724024,8.12941016 5.58847418,7.52187145 C4.97970764,6.91433274 4.67532461,6.18123581 4.67532461,5.32258065 C4.67532461,4.46392548 4.97970764,3.73082855 5.58847418,3.12328984 C6.19724024,2.51575113 6.93181818,2.21198177 7.792208,2.21198177 C8.65259733,2.21198177 9.38717527,2.51575113 9.99594133,3.12328984 C10.6047079,3.73082855 10.9090909,4.46392548 10.9090909,5.32258065 Z M15.5844155,7.14519726 C15.5844155,7.56642435 15.4329004,7.88639468 15.1298701,8.10510871 C14.8268398,8.32382274 14.4534633,8.43317952 14.0097401,8.43317952 L12.9220781,8.43317952 C12.3647185,7.76893742 11.6477275,7.42331516 10.771104,7.39631323 C11.2094158,6.76447306 11.4285716,6.07322855 11.4285716,5.32258065 C11.4285716,5.16597048 11.4150434,4.98775935 11.3879869,4.78794629 C11.7451297,4.91215452 12.1049784,4.97425839 12.4675326,4.97425839 C12.7867966,4.97425839 13.1087661,4.91620452 13.4334415,4.80009726 C13.7581168,4.68399 14.0219156,4.56923226 14.2248378,4.455825 C14.4277595,4.34241774 14.5454545,4.28571435 14.5779219,4.28571435 C15.2489178,4.28571435 15.5844155,5.23887532 15.5844155,7.14519726 Z M14.5454545,2.21198177 C14.5454545,2.78441806 14.3425324,3.27314952 13.9366885,3.67817516 C13.5308441,4.08320129 13.0411253,4.28571435 12.4675326,4.28571435 C11.8939394,4.28571435 11.4042206,4.08320129 10.9983767,3.67817516 C10.5925324,3.27314952 10.3896102,2.78441806 10.3896102,2.21198177 C10.3896102,1.639545 10.5925324,1.15081355 10.9983767,0.745787903 C11.4042206,0.340761774 11.8939394,0.13824871 12.4675326,0.13824871 C13.0411253,0.13824871 13.5308441,0.340761774 13.9366885,0.745787903 C14.3425324,1.15081355 14.5454545,1.639545 14.5454545,2.21198177 Z" id="Shape"></path>
        </g>
    </g>
</svg>