<?xml version="1.0" encoding="UTF-8"?>
<svg width="214px" height="161px" viewBox="0 0 214 161" version="1.1" xmlns="http://www.w3.org/2000/svg" xmlns:xlink="http://www.w3.org/1999/xlink">
    <defs></defs>
    <g id="v2.12" stroke="none" stroke-width="1" fill="none" fill-rule="evenodd">
        <g id="img-cpqh">
            <g id="web-21699" transform="translate(126.000000, 91.000000)" fill="#2B2E33">
                <rect id="Rectangle-path" x="26" y="54" width="7" height="8"></rect>
                <rect id="Rectangle-path" x="14" y="64" width="19" height="2"></rect>
                <path d="M33,47 L6.272,47 C5.271,47 5,46.758 5,45.757 L5,11.922 C5,10.921 5.271,11 6.272,11 L33,11 L33,6 L2.676,6 C1.198,6 0,6.848 0,8.326 L0,49.353 C0,50.831 1.198,52 2.676,52 L33,52 L33,47 L33,47 Z" id="Shape"></path>
                <path d="M56,25 L45,25 L45,14 L56,14 L56,25 L56,25 Z M47,23 L54,23 L54,16 L47,16 L47,23 L47,23 Z" id="Shape"></path>
                <rect id="Rectangle-path" x="59" y="16" width="21" height="2"></rect>
                <rect id="Rectangle-path" x="59" y="20" width="18" height="2"></rect>
                <path d="M56,42 L45,42 L45,31 L56,31 L56,42 L56,42 Z M47,40 L54,40 L54,33 L47,33 L47,40 L47,40 Z" id="Shape"></path>
                <rect id="Rectangle-path" x="59" y="35" width="16" height="2"></rect>
                <rect id="Rectangle-path" x="59" y="39" width="19" height="2"></rect>
                <path d="M56,59 L45,59 L45,48 L56,48 L56,59 L56,59 Z M47,57 L54,57 L54,50 L47,50 L47,57 L47,57 Z" id="Shape"></path>
                <rect id="Rectangle-path" x="59" y="50" width="17" height="2"></rect>
                <rect id="Rectangle-path" x="59" y="31" width="20" height="2"></rect>
                <rect id="Rectangle-path" x="59" y="54" width="11" height="2"></rect>
                <path d="M7,18 L7,44.863 L33,44.863 L33,35.838 C33,35.838 24.514,40.578 18.857,33.035 C17.165,30.779 18.114,26.435 14.623,22.46 C12.126,19.616 7,18 7,18 L7,18 Z" id="Shape"></path>
                <path d="M84.73,2 L73.378,2 C73.378,1 72.531,0 71.486,0 L55.405,0 C54.36,0 53.513,1 53.513,2 L40.27,2 C38.703,2 37,3.096 37,4.58 L37,67.311 C37,68.796 38.703,70 40.27,70 L84.73,70 C86.297,70 88,68.796 88,67.312 L88,4.58 C88,3.096 86.297,2 84.73,2 L84.73,2 Z M69.595,2.838 C70.117,2.838 70.541,3.261 70.541,3.784 C70.541,4.306 70.118,4.73 69.595,4.73 C69.072,4.73 68.649,4.306 68.649,3.784 C68.649,3.261 69.072,2.838 69.595,2.838 L69.595,2.838 Z M57.297,2.838 C57.819,2.838 58.243,3.261 58.243,3.784 C58.243,4.306 57.82,4.73 57.297,4.73 C56.774,4.73 56.351,4.306 56.351,3.784 C56.351,3.261 56.775,2.838 57.297,2.838 L57.297,2.838 Z M84,65.27 C84,65.27 83.784,66 82.838,66 L42.162,66 C41.216,66 41,65.27 41,65.27 L41,6.622 C41,5.676 42.162,6 42.162,6 L53.513,6 C53.513,7 54.36,8 55.405,8 L71.486,8 C72.531,8 73.378,7 73.378,6 L82.837,6 C82.837,6 83.999,5.676 83.999,6.622 L83.999,65.27 L84,65.27 Z" id="Shape"></path>
            </g>
            <g id="web-21699" transform="translate(126.000000, 0.000000)" fill="#FFFFFF">
                <rect id="Rectangle-path" x="26" y="54" width="7" height="8"></rect>
                <rect id="Rectangle-path" x="14" y="64" width="19" height="2"></rect>
                <path d="M33,47 L6.272,47 C5.271,47 5,46.758 5,45.757 L5,11.922 C5,10.921 5.271,11 6.272,11 L33,11 L33,6 L2.676,6 C1.198,6 0,6.848 0,8.326 L0,49.353 C0,50.831 1.198,52 2.676,52 L33,52 L33,47 L33,47 Z" id="Shape"></path>
                <path d="M56,25 L45,25 L45,14 L56,14 L56,25 L56,25 Z M47,23 L54,23 L54,16 L47,16 L47,23 L47,23 Z" id="Shape"></path>
                <rect id="Rectangle-path" x="59" y="16" width="21" height="2"></rect>
                <rect id="Rectangle-path" x="59" y="20" width="18" height="2"></rect>
                <path d="M56,42 L45,42 L45,31 L56,31 L56,42 L56,42 Z M47,40 L54,40 L54,33 L47,33 L47,40 L47,40 Z" id="Shape"></path>
                <rect id="Rectangle-path" x="59" y="35" width="16" height="2"></rect>
                <rect id="Rectangle-path" x="59" y="39" width="19" height="2"></rect>
                <path d="M56,59 L45,59 L45,48 L56,48 L56,59 L56,59 Z M47,57 L54,57 L54,50 L47,50 L47,57 L47,57 Z" id="Shape"></path>
                <rect id="Rectangle-path" x="59" y="50" width="17" height="2"></rect>
                <rect id="Rectangle-path" x="59" y="31" width="20" height="2"></rect>
                <rect id="Rectangle-path" x="59" y="54" width="11" height="2"></rect>
                <path d="M7,18 L7,44.863 L33,44.863 L33,35.838 C33,35.838 24.514,40.578 18.857,33.035 C17.165,30.779 18.114,26.435 14.623,22.46 C12.126,19.616 7,18 7,18 L7,18 Z" id="Shape"></path>
                <path d="M84.73,2 L73.378,2 C73.378,1 72.531,0 71.486,0 L55.405,0 C54.36,0 53.513,1 53.513,2 L40.27,2 C38.703,2 37,3.096 37,4.58 L37,67.311 C37,68.796 38.703,70 40.27,70 L84.73,70 C86.297,70 88,68.796 88,67.312 L88,4.58 C88,3.096 86.297,2 84.73,2 L84.73,2 Z M69.595,2.838 C70.117,2.838 70.541,3.261 70.541,3.784 C70.541,4.306 70.118,4.73 69.595,4.73 C69.072,4.73 68.649,4.306 68.649,3.784 C68.649,3.261 69.072,2.838 69.595,2.838 L69.595,2.838 Z M57.297,2.838 C57.819,2.838 58.243,3.261 58.243,3.784 C58.243,4.306 57.82,4.73 57.297,4.73 C56.774,4.73 56.351,4.306 56.351,3.784 C56.351,3.261 56.775,2.838 57.297,2.838 L57.297,2.838 Z M84,65.27 C84,65.27 83.784,66 82.838,66 L42.162,66 C41.216,66 41,65.27 41,65.27 L41,6.622 C41,5.676 42.162,6 42.162,6 L53.513,6 C53.513,7 54.36,8 55.405,8 L71.486,8 C72.531,8 73.378,7 73.378,6 L82.837,6 C82.837,6 83.999,5.676 83.999,6.622 L83.999,65.27 L84,65.27 Z" id="Shape"></path>
            </g>
            <g id="web-50330" transform="translate(0.000000, 5.000000)" fill="#FFFFFF">
                <path d="M21.5,54 L17.5,54 C17.224,54 17,53.776 17,53.5 L17,48.5 C17,48.224 17.224,48 17.5,48 L21.5,48 C21.776,48 22,48.224 22,48.5 L22,53.5 C22,53.776 21.776,54 21.5,54 L21.5,54 Z" id="Shape"></path>
                <path d="M7.5,17 L4.5,17 C4.224,17 4,16.776 4,16.5 L4,12.5 C4,12.224 4.224,12 4.5,12 L7.5,12 C7.776,12 8,12.224 8,12.5 L8,16.5 C8,16.776 7.776,17 7.5,17 L7.5,17 Z M5,16 L7,16 L7,13 L5,13 L5,16 L5,16 Z" id="Shape"></path>
                <path d="M7.5,24 L4.5,24 C4.224,24 4,23.776 4,23.5 L4,19.5 C4,19.224 4.224,19 4.5,19 L7.5,19 C7.776,19 8,19.224 8,19.5 L8,23.5 C8,23.776 7.776,24 7.5,24 L7.5,24 Z M5,23 L7,23 L7,20 L5,20 L5,23 L5,23 Z" id="Shape"></path>
                <path d="M7.5,31 L4.5,31 C4.224,31 4,30.776 4,30.5 L4,26.5 C4,26.224 4.224,26 4.5,26 L7.5,26 C7.776,26 8,26.224 8,26.5 L8,30.5 C8,30.776 7.776,31 7.5,31 L7.5,31 Z M5,30 L7,30 L7,27 L5,27 L5,30 L5,30 Z" id="Shape"></path>
                <path d="M7.5,38 L4.5,38 C4.224,38 4,37.776 4,37.5 L4,33.5 C4,33.224 4.224,33 4.5,33 L7.5,33 C7.776,33 8,33.224 8,33.5 L8,37.5 C8,37.776 7.776,38 7.5,38 L7.5,38 Z M5,37 L7,37 L7,34 L5,34 L5,37 L5,37 Z" id="Shape"></path>
                <path d="M7.5,45 L4.5,45 C4.224,45 4,44.776 4,44.5 L4,40.5 C4,40.224 4.224,40 4.5,40 L7.5,40 C7.776,40 8,40.224 8,40.5 L8,44.5 C8,44.776 7.776,45 7.5,45 L7.5,45 Z M5,44 L7,44 L7,41 L5,41 L5,44 L5,44 Z" id="Shape"></path>
                <path d="M7.5,52 L4.5,52 C4.224,52 4,51.776 4,51.5 L4,47.5 C4,47.224 4.224,47 4.5,47 L7.5,47 C7.776,47 8,47.224 8,47.5 L8,51.5 C8,51.776 7.776,52 7.5,52 L7.5,52 Z M5,51 L7,51 L7,48 L5,48 L5,51 L5,51 Z" id="Shape"></path>
                <path d="M86,61 L1,61 C0.448,61 0,60.553 0,60 L0,9 C0,8.448 0.448,8 1,8 L86,8 C86.553,8 87,8.448 87,9 L87,60 C87,60.553 86.553,61 86,61 L86,61 Z M2,59 L85,59 L85,10 L2,10 L2,59 L2,59 Z" id="Shape"></path>
                <path d="M86,10 C85.447,10 85,9.552 85,9 L2,9 C2,9.552 1.552,10 1,10 C0.448,10 0,9.552 0,9 L0,4 C0,1.794 1.938,0 4.321,0 L82.928,0 C85.25,0 87,1.72 87,4 L87,9 C87,9.552 86.553,10 86,10 Z M6.525,6.3 C7.22916306,6.3 7.8,5.72916306 7.8,5.025 C7.8,4.32083694 7.22916306,3.75 6.525,3.75 C5.82083694,3.75 5.25,4.32083694 5.25,5.025 C5.25,5.72916306 5.82083694,6.3 6.525,6.3 Z M10.625,6.3 C11.3291631,6.3 11.9,5.72916306 11.9,5.025 C11.9,4.32083694 11.3291631,3.75 10.625,3.75 C9.92083694,3.75 9.35,4.32083694 9.35,5.025 C9.35,5.72916306 9.92083694,6.3 10.625,6.3 Z M14.725,6.3 C15.4291631,6.3 16,5.72916306 16,5.025 C16,4.32083694 15.4291631,3.75 14.725,3.75 C14.0208369,3.75 13.45,4.32083694 13.45,5.025 C13.45,5.72916306 14.0208369,6.3 14.725,6.3 Z" id="Combined-Shape"></path>
                <path d="M25,19 L17,19 C16.724,19 16.5,18.776 16.5,18.5 C16.5,18.224 16.724,18 17,18 L25,18 C25.276,18 25.5,18.224 25.5,18.5 C25.5,18.776 25.276,19 25,19 L25,19 Z" id="Shape"></path>
                <path d="M31,53 L24,53 C23.724,53 23.5,52.776 23.5,52.5 C23.5,52.224 23.724,52 24,52 L31,52 C31.276,52 31.5,52.224 31.5,52.5 C31.5,52.776 31.276,53 31,53 L31,53 Z" id="Shape"></path>
                <path d="M34,50 L24,50 C23.724,50 23.5,49.776 23.5,49.5 C23.5,49.224 23.724,49 24,49 L34,49 C34.276,49 34.5,49.224 34.5,49.5 C34.5,49.776 34.276,50 34,50 L34,50 Z" id="Shape"></path>
                <path d="M41.5,54 L37.5,54 C37.224,54 37,53.776 37,53.5 L37,48.5 C37,48.224 37.224,48 37.5,48 L41.5,48 C41.776,48 42,48.224 42,48.5 L42,53.5 C42,53.776 41.776,54 41.5,54 L41.5,54 Z" id="Shape"></path>
                <path d="M51,53 L44,53 C43.724,53 43.5,52.776 43.5,52.5 C43.5,52.224 43.724,52 44,52 L51,52 C51.276,52 51.5,52.224 51.5,52.5 C51.5,52.776 51.276,53 51,53 L51,53 Z" id="Shape"></path>
                <path d="M54,50 L44,50 C43.724,50 43.5,49.776 43.5,49.5 C43.5,49.224 43.724,49 44,49 L54,49 C54.276,49 54.5,49.224 54.5,49.5 C54.5,49.776 54.276,50 54,50 L54,50 Z" id="Shape"></path>
                <path d="M63.5,54 L59.5,54 C59.224,54 59,53.776 59,53.5 L59,48.5 C59,48.224 59.224,48 59.5,48 L63.5,48 C63.776,48 64,48.224 64,48.5 L64,53.5 C64,53.776 63.776,54 63.5,54 L63.5,54 Z" id="Shape"></path>
                <path d="M73,53 L66,53 C65.724,53 65.5,52.776 65.5,52.5 C65.5,52.224 65.724,52 66,52 L73,52 C73.276,52 73.5,52.224 73.5,52.5 C73.5,52.776 73.276,53 73,53 L73,53 Z" id="Shape"></path>
                <path d="M76,50 L66,50 C65.724,50 65.5,49.776 65.5,49.5 C65.5,49.224 65.724,49 66,49 L76,49 C76.276,49 76.5,49.224 76.5,49.5 C76.5,49.776 76.276,50 76,50 L76,50 Z" id="Shape"></path>
                <path d="M28,16 L17,16 C16.448,16 16,15.552 16,15 C16,14.448 16.448,14 17,14 L28,14 C28.552,14 29,14.448 29,15 C29,15.552 28.552,16 28,16 L28,16 Z" id="Shape"></path>
                <path d="M10.5,60.5 C10.224,60.5 10,60.276 10,60 L10,10 C10,9.724 10.224,9.5 10.5,9.5 C10.776,9.5 11,9.724 11,10 L11,60 C11,60.276 10.776,60.5 10.5,60.5 L10.5,60.5 Z" id="Shape"></path>
                <path d="M58.396,32.948 C58.321,32.948 58.244,32.931 58.172,32.895 C57.925,32.771 57.825,32.471 57.948,32.224 L63.515,21.106 C63.639,20.859 63.942,20.761 64.186,20.883 C64.433,21.007 64.533,21.307 64.41,21.554 L58.843,32.671 C58.755,32.848 58.578,32.948 58.396,32.948 L58.396,32.948 Z" id="Shape"></path>
                <path d="M54.778,33.412 C54.63,33.412 54.483,33.347 54.384,33.221 L49.629,27.149 C49.459,26.932 49.497,26.618 49.714,26.447 C49.932,26.277 50.246,26.315 50.416,26.532 L55.171,32.603 C55.341,32.821 55.303,33.135 55.086,33.305 C54.995,33.377 54.887,33.412 54.778,33.412 L54.778,33.412 Z" id="Shape"></path>
                <path d="M42.54,35.744 C42.468,35.744 42.394,35.728 42.325,35.695 C42.076,35.576 41.971,35.277 42.09,35.028 L46.093,26.663 C46.212,26.414 46.511,26.309 46.76,26.428 C47.009,26.547 47.114,26.846 46.995,27.095 L42.992,35.46 C42.906,35.64 42.727,35.744 42.54,35.744 L42.54,35.744 Z" id="Shape"></path>
                <path d="M38.801,36.559 C38.688,36.559 38.575,36.521 38.481,36.443 L35.678,34.107 C35.466,33.93 35.437,33.615 35.614,33.403 C35.791,33.192 36.106,33.162 36.319,33.34 L39.122,35.676 C39.334,35.853 39.363,36.168 39.186,36.38 C39.086,36.497 38.944,36.559 38.801,36.559 L38.801,36.559 Z" id="Shape"></path>
                <path d="M24,40.865 C23.862,40.865 23.726,40.808 23.627,40.698 C23.443,40.492 23.461,40.176 23.668,39.992 L31.376,33.123 C31.581,32.938 31.898,32.957 32.082,33.163 C32.266,33.369 32.248,33.685 32.041,33.869 L24.333,40.738 C24.237,40.823 24.119,40.865 24,40.865 L24,40.865 Z" id="Shape"></path>
                <path d="M48.255,27.983 C46.454,27.983 44.989,26.518 44.989,24.717 C44.989,22.916 46.454,21.451 48.255,21.451 C50.056,21.451 51.522,22.916 51.522,24.717 C51.522,26.518 50.056,27.983 48.255,27.983 L48.255,27.983 Z M48.255,22.451 C47.006,22.451 45.989,23.468 45.989,24.717 C45.989,25.966 47.006,26.983 48.255,26.983 C49.505,26.983 50.522,25.967 50.522,24.717 C50.522,23.467 49.505,22.451 48.255,22.451 L48.255,22.451 Z" id="Shape"></path>
                <path d="M33.942,35.14 C32.141,35.14 30.676,33.675 30.676,31.874 C30.676,30.073 32.141,28.607 33.942,28.607 C35.743,28.607 37.208,30.073 37.208,31.874 C37.208,33.675 35.743,35.14 33.942,35.14 L33.942,35.14 Z M33.942,29.607 C32.692,29.607 31.676,30.624 31.676,31.874 C31.676,33.123 32.692,34.14 33.942,34.14 C35.192,34.14 36.208,33.123 36.208,31.874 C36.208,30.624 35.191,29.607 33.942,29.607 L33.942,29.607 Z" id="Shape"></path>
                <path d="M56.843,38.002 C55.042,38.002 53.577,36.537 53.577,34.736 C53.577,32.935 55.042,31.47 56.843,31.47 C58.644,31.47 60.11,32.935 60.11,34.736 C60.11,36.537 58.644,38.002 56.843,38.002 L56.843,38.002 Z M56.843,32.471 C55.594,32.471 54.577,33.488 54.577,34.737 C54.577,35.986 55.594,37.003 56.843,37.003 C58.093,37.003 59.11,35.986 59.11,34.737 C59.11,33.488 58.093,32.471 56.843,32.471 L56.843,32.471 Z" id="Shape"></path>
                <path d="M41.099,40.865 C39.298,40.865 37.833,39.399 37.833,37.598 C37.833,35.797 39.298,34.332 41.099,34.332 C42.9,34.332 44.365,35.797 44.365,37.598 C44.365,39.399 42.899,40.865 41.099,40.865 L41.099,40.865 Z M41.099,35.333 C39.849,35.333 38.833,36.35 38.833,37.599 C38.833,38.849 39.849,39.866 41.099,39.866 C42.349,39.866 43.365,38.849 43.365,37.599 C43.365,36.35 42.348,35.333 41.099,35.333 L41.099,35.333 Z" id="Shape"></path>
                <path d="M65.431,22.258 C63.63,22.258 62.165,20.793 62.165,18.992 C62.165,17.191 63.63,15.726 65.431,15.726 C67.232,15.726 68.698,17.191 68.698,18.992 C68.698,20.793 67.231,22.258 65.431,22.258 L65.431,22.258 Z M65.431,16.726 C64.182,16.726 63.165,17.742 63.165,18.992 C63.165,20.242 64.182,21.258 65.431,21.258 C66.681,21.258 67.698,20.241 67.698,18.992 C67.698,17.743 66.681,16.726 65.431,16.726 L65.431,16.726 Z" id="Shape"></path>
            </g>
            <g id="web-50330" transform="translate(0.000000, 96.000000)" fill="#2B2E33">
                <path d="M21.5,54 L17.5,54 C17.224,54 17,53.776 17,53.5 L17,48.5 C17,48.224 17.224,48 17.5,48 L21.5,48 C21.776,48 22,48.224 22,48.5 L22,53.5 C22,53.776 21.776,54 21.5,54 L21.5,54 Z" id="Shape"></path>
                <path d="M7.5,17 L4.5,17 C4.224,17 4,16.776 4,16.5 L4,12.5 C4,12.224 4.224,12 4.5,12 L7.5,12 C7.776,12 8,12.224 8,12.5 L8,16.5 C8,16.776 7.776,17 7.5,17 L7.5,17 Z M5,16 L7,16 L7,13 L5,13 L5,16 L5,16 Z" id="Shape"></path>
                <path d="M7.5,24 L4.5,24 C4.224,24 4,23.776 4,23.5 L4,19.5 C4,19.224 4.224,19 4.5,19 L7.5,19 C7.776,19 8,19.224 8,19.5 L8,23.5 C8,23.776 7.776,24 7.5,24 L7.5,24 Z M5,23 L7,23 L7,20 L5,20 L5,23 L5,23 Z" id="Shape"></path>
                <path d="M7.5,31 L4.5,31 C4.224,31 4,30.776 4,30.5 L4,26.5 C4,26.224 4.224,26 4.5,26 L7.5,26 C7.776,26 8,26.224 8,26.5 L8,30.5 C8,30.776 7.776,31 7.5,31 L7.5,31 Z M5,30 L7,30 L7,27 L5,27 L5,30 L5,30 Z" id="Shape"></path>
                <path d="M7.5,38 L4.5,38 C4.224,38 4,37.776 4,37.5 L4,33.5 C4,33.224 4.224,33 4.5,33 L7.5,33 C7.776,33 8,33.224 8,33.5 L8,37.5 C8,37.776 7.776,38 7.5,38 L7.5,38 Z M5,37 L7,37 L7,34 L5,34 L5,37 L5,37 Z" id="Shape"></path>
                <path d="M7.5,45 L4.5,45 C4.224,45 4,44.776 4,44.5 L4,40.5 C4,40.224 4.224,40 4.5,40 L7.5,40 C7.776,40 8,40.224 8,40.5 L8,44.5 C8,44.776 7.776,45 7.5,45 L7.5,45 Z M5,44 L7,44 L7,41 L5,41 L5,44 L5,44 Z" id="Shape"></path>
                <path d="M7.5,52 L4.5,52 C4.224,52 4,51.776 4,51.5 L4,47.5 C4,47.224 4.224,47 4.5,47 L7.5,47 C7.776,47 8,47.224 8,47.5 L8,51.5 C8,51.776 7.776,52 7.5,52 L7.5,52 Z M5,51 L7,51 L7,48 L5,48 L5,51 L5,51 Z" id="Shape"></path>
                <path d="M86,61 L1,61 C0.448,61 0,60.553 0,60 L0,9 C0,8.448 0.448,8 1,8 L86,8 C86.553,8 87,8.448 87,9 L87,60 C87,60.553 86.553,61 86,61 L86,61 Z M2,59 L85,59 L85,10 L2,10 L2,59 L2,59 Z" id="Shape"></path>
                <path d="M86,10 C85.447,10 85,9.552 85,9 L2,9 C2,9.552 1.552,10 1,10 C0.448,10 0,9.552 0,9 L0,4 C0,1.794 1.938,0 4.321,0 L82.928,0 C85.25,0 87,1.72 87,4 L87,9 C87,9.552 86.553,10 86,10 Z M6.525,6.3 C7.22916306,6.3 7.8,5.72916306 7.8,5.025 C7.8,4.32083694 7.22916306,3.75 6.525,3.75 C5.82083694,3.75 5.25,4.32083694 5.25,5.025 C5.25,5.72916306 5.82083694,6.3 6.525,6.3 Z M10.625,6.3 C11.3291631,6.3 11.9,5.72916306 11.9,5.025 C11.9,4.32083694 11.3291631,3.75 10.625,3.75 C9.92083694,3.75 9.35,4.32083694 9.35,5.025 C9.35,5.72916306 9.92083694,6.3 10.625,6.3 Z M14.725,6.3 C15.4291631,6.3 16,5.72916306 16,5.025 C16,4.32083694 15.4291631,3.75 14.725,3.75 C14.0208369,3.75 13.45,4.32083694 13.45,5.025 C13.45,5.72916306 14.0208369,6.3 14.725,6.3 Z" id="Combined-Shape"></path>
                <path d="M25,19 L17,19 C16.724,19 16.5,18.776 16.5,18.5 C16.5,18.224 16.724,18 17,18 L25,18 C25.276,18 25.5,18.224 25.5,18.5 C25.5,18.776 25.276,19 25,19 L25,19 Z" id="Shape"></path>
                <path d="M31,53 L24,53 C23.724,53 23.5,52.776 23.5,52.5 C23.5,52.224 23.724,52 24,52 L31,52 C31.276,52 31.5,52.224 31.5,52.5 C31.5,52.776 31.276,53 31,53 L31,53 Z" id="Shape"></path>
                <path d="M34,50 L24,50 C23.724,50 23.5,49.776 23.5,49.5 C23.5,49.224 23.724,49 24,49 L34,49 C34.276,49 34.5,49.224 34.5,49.5 C34.5,49.776 34.276,50 34,50 L34,50 Z" id="Shape"></path>
                <path d="M41.5,54 L37.5,54 C37.224,54 37,53.776 37,53.5 L37,48.5 C37,48.224 37.224,48 37.5,48 L41.5,48 C41.776,48 42,48.224 42,48.5 L42,53.5 C42,53.776 41.776,54 41.5,54 L41.5,54 Z" id="Shape"></path>
                <path d="M51,53 L44,53 C43.724,53 43.5,52.776 43.5,52.5 C43.5,52.224 43.724,52 44,52 L51,52 C51.276,52 51.5,52.224 51.5,52.5 C51.5,52.776 51.276,53 51,53 L51,53 Z" id="Shape"></path>
                <path d="M54,50 L44,50 C43.724,50 43.5,49.776 43.5,49.5 C43.5,49.224 43.724,49 44,49 L54,49 C54.276,49 54.5,49.224 54.5,49.5 C54.5,49.776 54.276,50 54,50 L54,50 Z" id="Shape"></path>
                <path d="M63.5,54 L59.5,54 C59.224,54 59,53.776 59,53.5 L59,48.5 C59,48.224 59.224,48 59.5,48 L63.5,48 C63.776,48 64,48.224 64,48.5 L64,53.5 C64,53.776 63.776,54 63.5,54 L63.5,54 Z" id="Shape"></path>
                <path d="M73,53 L66,53 C65.724,53 65.5,52.776 65.5,52.5 C65.5,52.224 65.724,52 66,52 L73,52 C73.276,52 73.5,52.224 73.5,52.5 C73.5,52.776 73.276,53 73,53 L73,53 Z" id="Shape"></path>
                <path d="M76,50 L66,50 C65.724,50 65.5,49.776 65.5,49.5 C65.5,49.224 65.724,49 66,49 L76,49 C76.276,49 76.5,49.224 76.5,49.5 C76.5,49.776 76.276,50 76,50 L76,50 Z" id="Shape"></path>
                <path d="M28,16 L17,16 C16.448,16 16,15.552 16,15 C16,14.448 16.448,14 17,14 L28,14 C28.552,14 29,14.448 29,15 C29,15.552 28.552,16 28,16 L28,16 Z" id="Shape"></path>
                <path d="M10.5,60.5 C10.224,60.5 10,60.276 10,60 L10,10 C10,9.724 10.224,9.5 10.5,9.5 C10.776,9.5 11,9.724 11,10 L11,60 C11,60.276 10.776,60.5 10.5,60.5 L10.5,60.5 Z" id="Shape"></path>
                <path d="M58.396,32.948 C58.321,32.948 58.244,32.931 58.172,32.895 C57.925,32.771 57.825,32.471 57.948,32.224 L63.515,21.106 C63.639,20.859 63.942,20.761 64.186,20.883 C64.433,21.007 64.533,21.307 64.41,21.554 L58.843,32.671 C58.755,32.848 58.578,32.948 58.396,32.948 L58.396,32.948 Z" id="Shape"></path>
                <path d="M54.778,33.412 C54.63,33.412 54.483,33.347 54.384,33.221 L49.629,27.149 C49.459,26.932 49.497,26.618 49.714,26.447 C49.932,26.277 50.246,26.315 50.416,26.532 L55.171,32.603 C55.341,32.821 55.303,33.135 55.086,33.305 C54.995,33.377 54.887,33.412 54.778,33.412 L54.778,33.412 Z" id="Shape"></path>
                <path d="M42.54,35.744 C42.468,35.744 42.394,35.728 42.325,35.695 C42.076,35.576 41.971,35.277 42.09,35.028 L46.093,26.663 C46.212,26.414 46.511,26.309 46.76,26.428 C47.009,26.547 47.114,26.846 46.995,27.095 L42.992,35.46 C42.906,35.64 42.727,35.744 42.54,35.744 L42.54,35.744 Z" id="Shape"></path>
                <path d="M38.801,36.559 C38.688,36.559 38.575,36.521 38.481,36.443 L35.678,34.107 C35.466,33.93 35.437,33.615 35.614,33.403 C35.791,33.192 36.106,33.162 36.319,33.34 L39.122,35.676 C39.334,35.853 39.363,36.168 39.186,36.38 C39.086,36.497 38.944,36.559 38.801,36.559 L38.801,36.559 Z" id="Shape"></path>
                <path d="M24,40.865 C23.862,40.865 23.726,40.808 23.627,40.698 C23.443,40.492 23.461,40.176 23.668,39.992 L31.376,33.123 C31.581,32.938 31.898,32.957 32.082,33.163 C32.266,33.369 32.248,33.685 32.041,33.869 L24.333,40.738 C24.237,40.823 24.119,40.865 24,40.865 L24,40.865 Z" id="Shape"></path>
                <path d="M48.255,27.983 C46.454,27.983 44.989,26.518 44.989,24.717 C44.989,22.916 46.454,21.451 48.255,21.451 C50.056,21.451 51.522,22.916 51.522,24.717 C51.522,26.518 50.056,27.983 48.255,27.983 L48.255,27.983 Z M48.255,22.451 C47.006,22.451 45.989,23.468 45.989,24.717 C45.989,25.966 47.006,26.983 48.255,26.983 C49.505,26.983 50.522,25.967 50.522,24.717 C50.522,23.467 49.505,22.451 48.255,22.451 L48.255,22.451 Z" id="Shape"></path>
                <path d="M33.942,35.14 C32.141,35.14 30.676,33.675 30.676,31.874 C30.676,30.073 32.141,28.607 33.942,28.607 C35.743,28.607 37.208,30.073 37.208,31.874 C37.208,33.675 35.743,35.14 33.942,35.14 L33.942,35.14 Z M33.942,29.607 C32.692,29.607 31.676,30.624 31.676,31.874 C31.676,33.123 32.692,34.14 33.942,34.14 C35.192,34.14 36.208,33.123 36.208,31.874 C36.208,30.624 35.191,29.607 33.942,29.607 L33.942,29.607 Z" id="Shape"></path>
                <path d="M56.843,38.002 C55.042,38.002 53.577,36.537 53.577,34.736 C53.577,32.935 55.042,31.47 56.843,31.47 C58.644,31.47 60.11,32.935 60.11,34.736 C60.11,36.537 58.644,38.002 56.843,38.002 L56.843,38.002 Z M56.843,32.471 C55.594,32.471 54.577,33.488 54.577,34.737 C54.577,35.986 55.594,37.003 56.843,37.003 C58.093,37.003 59.11,35.986 59.11,34.737 C59.11,33.488 58.093,32.471 56.843,32.471 L56.843,32.471 Z" id="Shape"></path>
                <path d="M41.099,40.865 C39.298,40.865 37.833,39.399 37.833,37.598 C37.833,35.797 39.298,34.332 41.099,34.332 C42.9,34.332 44.365,35.797 44.365,37.598 C44.365,39.399 42.899,40.865 41.099,40.865 L41.099,40.865 Z M41.099,35.333 C39.849,35.333 38.833,36.35 38.833,37.599 C38.833,38.849 39.849,39.866 41.099,39.866 C42.349,39.866 43.365,38.849 43.365,37.599 C43.365,36.35 42.348,35.333 41.099,35.333 L41.099,35.333 Z" id="Shape"></path>
                <path d="M65.431,22.258 C63.63,22.258 62.165,20.793 62.165,18.992 C62.165,17.191 63.63,15.726 65.431,15.726 C67.232,15.726 68.698,17.191 68.698,18.992 C68.698,20.793 67.231,22.258 65.431,22.258 L65.431,22.258 Z M65.431,16.726 C64.182,16.726 63.165,17.742 63.165,18.992 C63.165,20.242 64.182,21.258 65.431,21.258 C66.681,21.258 67.698,20.241 67.698,18.992 C67.698,17.743 66.681,16.726 65.431,16.726 L65.431,16.726 Z" id="Shape"></path>
            </g>
        </g>
    </g>
</svg>