<svg width="21" height="20" viewBox="0 0 21 20" fill="none" xmlns="http://www.w3.org/2000/svg">
<path d="M4.08333 20V16H6.125V18H10.2083C14.7083 18 18.3646 14.4167 18.3646 10C18.3646 5.58333 14.7083 2 10.2083 2H6.11458V10H8.03125V12H4.08333V0H10.1979C15.8333 0 20.3958 4.47917 20.3958 10C20.3958 15.5208 15.8333 20 10.1979 20H4.08333ZM0 16V4H2.04167V14H10.1979C12.4479 14 14.2813 12.2083 14.2813 10C14.2813 7.79167 12.4583 6 10.1979 6H8.15625V4H10.1979C13.5729 4 16.3125 6.6875 16.3125 10C16.3125 13.3125 13.5729 16 10.1979 16H0Z" fill="#002EEE"/>
</svg>