<svg width="208" height="160" viewBox="0 0 208 160" fill="none" xmlns="http://www.w3.org/2000/svg">
<path d="M83.014 148.616C82.37 148.672 81.684 148.728 80.956 148.784V147.678H83.14V146.852H80.956V145.928H80.032V146.852H78.408C78.758 146.39 79.094 145.858 79.402 145.27H83.238V144.374H79.822C79.934 144.122 80.032 143.87 80.13 143.618L79.122 143.45C79.01 143.758 78.884 144.066 78.758 144.374H76.812V145.27H78.31C77.974 145.9 77.596 146.432 77.204 146.88L77.428 147.678H80.032V148.84C79.08 148.896 78.058 148.938 76.994 148.994L77.12 149.89C78.128 149.834 79.108 149.764 80.032 149.708V150.716H80.956V149.638C81.67 149.568 82.356 149.498 83.014 149.442V148.616ZM84.974 147.692H86.794V150.73H87.76V147.692H89.244V146.81H85.044V145.354C86.556 145.186 87.816 144.864 88.852 144.416L88.208 143.66C87.228 144.108 85.856 144.416 84.12 144.584V146.782C84.092 148.042 83.756 149.12 83.14 150.03L83.84 150.758C84.442 149.89 84.82 148.868 84.974 147.692ZM87.676 151.136H78.492V156.4H79.528V155.854H86.64V156.4H87.676V151.136ZM79.528 154.986V153.894H86.64V154.986H79.528ZM79.528 153.082V151.99H86.64V153.082H79.528ZM91.862 144.318V145.298H95.88V146.236C95.866 147.104 95.81 147.93 95.698 148.686H90.924V149.652H95.53C95.348 150.534 95.096 151.332 94.76 152.032C94.004 153.46 92.674 154.594 90.742 155.462L91.302 156.358C93.248 155.518 94.648 154.328 95.516 152.816C95.992 151.92 96.342 150.87 96.566 149.652H97.7V154.748C97.7 155.7 98.148 156.176 99.072 156.176H101.34C101.928 156.176 102.348 156.05 102.614 155.798C102.922 155.49 103.132 154.664 103.244 153.292L102.292 152.984C102.222 154.076 102.096 154.72 101.9 154.944C101.746 155.126 101.494 155.224 101.158 155.224H99.38C98.932 155.224 98.708 154.986 98.708 154.538V149.652H103.048V148.686H96.72C96.818 147.93 96.874 147.104 96.902 146.236V145.298H101.914V144.318H91.862ZM113.212 146.67H115.284C115.228 148.56 114.934 150.212 114.388 151.626C113.828 150.45 113.38 149.036 113.03 147.398L113.212 146.67ZM113.926 152.634C113.282 153.824 112.428 154.79 111.336 155.546L111.854 156.386C112.904 155.63 113.772 154.692 114.444 153.572C115.144 154.748 115.984 155.7 116.964 156.4L117.51 155.574C116.502 154.888 115.648 153.922 114.92 152.662C115.704 151.01 116.138 149.008 116.208 146.67H117.118V145.704H113.422C113.534 145.088 113.646 144.416 113.73 143.702L112.75 143.534C112.47 146.194 111.91 148.308 111.084 149.876L111.714 150.646C112.008 150.142 112.288 149.568 112.54 148.924C112.918 150.324 113.38 151.556 113.926 152.634ZM107.29 150.072C107.192 150.352 107.08 150.646 106.954 150.954H104.91V151.836H106.562C106.282 152.396 105.96 152.97 105.596 153.586C106.282 153.838 106.926 154.104 107.542 154.37C106.73 154.832 105.736 155.21 104.588 155.518L105.064 156.358C106.464 155.966 107.626 155.448 108.55 154.804C109.376 155.168 110.09 155.546 110.706 155.91L111.252 155.126C110.636 154.79 109.992 154.482 109.32 154.174C110.048 153.502 110.566 152.704 110.874 151.78V150.954H107.948C108.032 150.702 108.13 150.45 108.228 150.184L107.29 150.072ZM108.396 153.782C107.892 153.572 107.36 153.376 106.8 153.18C107.08 152.76 107.332 152.312 107.556 151.836H109.964C109.628 152.564 109.096 153.222 108.396 153.782ZM106.016 143.828L105.218 144.094C105.554 144.626 105.862 145.228 106.156 145.914L106.884 145.578C106.632 144.962 106.352 144.374 106.016 143.828ZM110.272 143.786C110.02 144.374 109.656 144.962 109.208 145.564L109.922 145.928C110.37 145.34 110.72 144.738 111 144.122L110.272 143.786ZM104.938 146.25V147.132H106.926C106.506 147.902 105.75 148.602 104.672 149.232L105.162 150.044C106.366 149.232 107.206 148.28 107.668 147.174V149.834H108.606V148.014C109.11 148.35 109.712 148.798 110.412 149.358L110.93 148.574C110.146 148.098 109.362 147.664 108.606 147.286V147.132H111.154V146.25H108.606V143.576H107.668V146.25H104.938ZM120.296 156.274C121.08 156.274 121.472 155.854 121.472 155.042V150.954C121.906 150.758 122.34 150.562 122.774 150.338V149.344C122.354 149.568 121.92 149.778 121.472 149.974V147.216H122.816V146.25H121.472V143.604H120.492V146.25H118.812V147.216H120.492V150.38C119.876 150.604 119.232 150.8 118.588 150.954L118.84 151.934C119.386 151.766 119.932 151.57 120.492 151.36V154.79C120.492 155.182 120.31 155.392 119.96 155.392C119.624 155.392 119.26 155.364 118.896 155.322L119.106 156.274H120.296ZM124.482 150.086H127.338V151.808H125V156.4H125.938V155.714H129.732V156.4H130.67V151.808H128.318V150.086H131.314V149.176H128.318V147.524H130.95V144.122H123.572V148.504C123.558 151.444 123.054 153.852 122.06 155.7L122.844 156.4C123.768 154.58 124.314 152.48 124.482 150.086ZM127.338 147.524V149.176H124.538C124.538 148.952 124.552 148.728 124.552 148.504V147.524H127.338ZM125.938 154.818V152.704H129.732V154.818H125.938ZM129.97 145.06V146.614H124.552V145.06H129.97Z" fill="#79809A"/>
<path fill-rule="evenodd" clip-rule="evenodd" d="M163 80C162.448 80 162 80.4477 162 81V83H160C159.448 83 159 83.4477 159 84C159 84.5523 159.448 85 160 85H162V87C162 87.5523 162.448 88 163 88C163.552 88 164 87.5523 164 87V85H166C166.552 85 167 84.5523 167 84C167 83.4477 166.552 83 166 83H164V81C164 80.4477 163.552 80 163 80Z" fill="#7A9DFD"/>
<path fill-rule="evenodd" clip-rule="evenodd" d="M54 57C53.4477 57 53 57.4477 53 58V60H51C50.4477 60 50 60.4477 50 61C50 61.5523 50.4477 62 51 62H53V64C53 64.5523 53.4477 65 54 65C54.5523 65 55 64.5523 55 64V62H57C57.5523 62 58 61.5523 58 61C58 60.4477 57.5523 60 57 60H55V58C55 57.4477 54.5523 57 54 57Z" fill="#7A9DFD"/>
<circle cx="42" cy="80" r="3" stroke="#8FB0FE" stroke-width="2"/>
<path fill-rule="evenodd" clip-rule="evenodd" d="M207.98 135.5C207.993 135.167 208 134.834 208 134.5C208 106.886 161.438 84.5 104 84.5C46.5624 84.5 0 106.886 0 134.5C0 134.834 0.00681624 135.167 0.0203855 135.5H207.98Z" fill="url(#paint0_linear_481_3590)"/>
<circle cx="155" cy="4" r="3" stroke="#B5BCF6" stroke-opacity="0.4" stroke-width="2"/>
<g filter="url(#filter0_f_481_3590)">
<ellipse cx="104.492" cy="119.594" rx="39.3846" ry="3.93846" fill="url(#paint1_radial_481_3590)"/>
</g>
<path d="M59.2 37.4399C59.2 35.2308 60.9908 33.4399 63.2 33.4399H144.8C147.009 33.4399 148.8 35.2308 148.8 37.4399V95.4092C148.8 97.6183 147.009 99.4092 144.8 99.4092H63.1999C60.9908 99.4092 59.2 97.6183 59.2 95.4092V37.4399Z" fill="url(#paint2_linear_481_3590)"/>
<path d="M59.2 44.2708H148.8V99.3477C148.8 101.557 147.009 103.348 144.8 103.348H63.1999C60.9908 103.348 59.2 101.557 59.2 99.3477V44.2708Z" fill="url(#paint3_linear_481_3590)"/>
<circle cx="139.84" cy="71.52" r="3.48" stroke="#B5BCF6" stroke-opacity="0.4" stroke-width="2"/>
<circle cx="65.9199" cy="54.72" r="3.48" stroke="#B5BCF6" stroke-opacity="0.4" stroke-width="2"/>
<path d="M69.28 91.6799L138.72 91.6799" stroke="white" stroke-width="2" stroke-linecap="square"/>
<circle cx="67.04" cy="91.6799" r="2.24" stroke="white" stroke-width="2"/>
<circle cx="140.96" cy="91.6799" r="2.24" stroke="white" stroke-width="2"/>
<path fill-rule="evenodd" clip-rule="evenodd" d="M104.354 65.1538C107.544 65.1538 110.131 62.5674 110.131 59.3769C110.131 56.1865 107.544 53.6001 104.354 53.6001C101.163 53.6001 98.5769 56.1865 98.5769 59.3769C98.5769 62.5674 101.163 65.1538 104.354 65.1538ZM104.354 81.0401C110.735 81.0401 115.907 77.8071 115.907 73.819C115.907 69.831 110.735 66.598 104.354 66.598C97.9728 66.598 92.8 69.831 92.8 73.819C92.8 77.8071 97.9728 81.0401 104.354 81.0401Z" fill="white"/>
<circle cx="85.2924" cy="38.8553" r="2.46154" fill="url(#paint4_linear_481_3590)"/>
<circle cx="76.4308" cy="38.8553" r="2.46154" fill="url(#paint5_linear_481_3590)"/>
<circle cx="67.5692" cy="38.8553" r="2.46154" fill="url(#paint6_linear_481_3590)"/>
<defs>
<filter id="filter0_f_481_3590" x="61.1077" y="111.655" width="86.7693" height="15.877" filterUnits="userSpaceOnUse" color-interpolation-filters="sRGB">
<feFlood flood-opacity="0" result="BackgroundImageFix"/>
<feBlend mode="normal" in="SourceGraphic" in2="BackgroundImageFix" result="shape"/>
<feGaussianBlur stdDeviation="2" result="effect1_foregroundBlur_481_3590"/>
</filter>
<linearGradient id="paint0_linear_481_3590" x1="104" y1="85.5" x2="104" y2="127.375" gradientUnits="userSpaceOnUse">
<stop stop-color="#E5EBFC"/>
<stop offset="1" stop-color="#F5F7FA" stop-opacity="0"/>
</linearGradient>
<radialGradient id="paint1_radial_481_3590" cx="0" cy="0" r="1" gradientUnits="userSpaceOnUse" gradientTransform="translate(104.492 119.594) rotate(90) scale(5.41538 54.1538)">
<stop stop-color="#7AA7FF"/>
<stop offset="1" stop-color="#D0E0FF" stop-opacity="0"/>
</radialGradient>
<linearGradient id="paint2_linear_481_3590" x1="109.6" y1="24.6784" x2="103.861" y2="103.655" gradientUnits="userSpaceOnUse">
<stop stop-color="#5077F9"/>
<stop offset="1" stop-color="#658BEF" stop-opacity="0"/>
</linearGradient>
<linearGradient id="paint3_linear_481_3590" x1="155.927" y1="49.1938" x2="70.791" y2="170.937" gradientUnits="userSpaceOnUse">
<stop stop-color="#DDE5FF"/>
<stop offset="0.764778" stop-color="#B5C9F8"/>
<stop offset="1" stop-color="#AAC1F6"/>
</linearGradient>
<linearGradient id="paint4_linear_481_3590" x1="90.1136" y1="35.4014" x2="84.7975" y2="41.7562" gradientUnits="userSpaceOnUse">
<stop stop-color="#FAFBFF"/>
<stop offset="0.764778" stop-color="#B5C9F8"/>
<stop offset="1" stop-color="#AAC1F6"/>
</linearGradient>
<linearGradient id="paint5_linear_481_3590" x1="81.2521" y1="35.4014" x2="75.936" y2="41.7562" gradientUnits="userSpaceOnUse">
<stop stop-color="#FAFBFF"/>
<stop offset="0.764778" stop-color="#B5C9F8"/>
<stop offset="1" stop-color="#AAC1F6"/>
</linearGradient>
<linearGradient id="paint6_linear_481_3590" x1="72.3905" y1="35.4014" x2="67.0744" y2="41.7562" gradientUnits="userSpaceOnUse">
<stop stop-color="#FAFBFF"/>
<stop offset="0.764778" stop-color="#B5C9F8"/>
<stop offset="1" stop-color="#AAC1F6"/>
</linearGradient>
</defs>
</svg>
