<svg width="188" height="108" viewBox="0 0 188 108" fill="none" xmlns="http://www.w3.org/2000/svg">
<path fill-rule="evenodd" clip-rule="evenodd" d="M187.982 107.634C187.994 107.333 188 107.032 188 106.73C188 81.7711 145.915 61.5378 94 61.5378C42.0852 61.5378 0 81.7711 0 106.73C0 107.032 0.0061609 107.333 0.0184256 107.634H187.982Z" fill="url(#paint0_linear_2086_3901)"/>
<rect x="59.6533" y="4.59546" width="67.7885" height="86.7692" rx="6" fill="url(#paint1_linear_2086_3901)"/>
<path d="M65.0762 15.0186C65.0762 12.2571 67.3147 10.0186 70.0762 10.0186H117.018C119.78 10.0186 122.018 12.2571 122.018 15.0186V60.9416C122.018 74.7488 110.826 85.9416 97.0185 85.9416H70.0762C67.3148 85.9416 65.0762 83.7031 65.0762 80.9416V15.0186Z" fill="url(#paint2_linear_2086_3901)"/>
<rect x="73.2109" y="23.5762" width="40.6731" height="4.51923" rx="2.25962" fill="url(#paint3_linear_2086_3901)"/>
<rect x="73.2109" y="36.23" width="40.6731" height="4.51923" rx="2.25962" fill="url(#paint4_linear_2086_3901)"/>
<rect x="73.2109" y="48.8838" width="40.6731" height="4.51923" rx="2.25962" fill="url(#paint5_linear_2086_3901)"/>
<rect x="73.2109" y="61.5376" width="19.8846" height="4.51923" rx="2.25962" fill="url(#paint6_linear_2086_3901)"/>
<g filter="url(#filter0_d_2086_3901)">
<path fill-rule="evenodd" clip-rule="evenodd" d="M82.3662 3.78564C81.2616 3.78564 80.3662 4.68107 80.3662 5.78564V11.6318C80.3662 13.2887 81.7094 14.6318 83.3662 14.6318H104.67C106.327 14.6318 107.67 13.2887 107.67 11.6318V5.78564C107.67 4.68107 106.774 3.78564 105.67 3.78564H82.3662ZM83.2489 5.6688C82.6966 5.6688 82.2489 6.11652 82.2489 6.66881V11.7489C82.2489 12.3012 82.6966 12.7489 83.2489 12.7489H104.787C105.339 12.7489 105.787 12.3012 105.787 11.7489V6.6688C105.787 6.11652 105.339 5.6688 104.787 5.6688H83.2489Z" fill="url(#paint7_linear_2086_3901)"/>
</g>
<path d="M83.7852 1.64913C83.9859 0.730793 84.7991 0.0761719 85.7391 0.0761719H102.259C103.199 0.0761719 104.012 0.730794 104.213 1.64913L104.809 4.37701L105.749 5.45816V9.11463H82.249V5.45816L83.189 4.37701L83.7852 1.64913Z" fill="url(#paint8_linear_2086_3901)"/>
<path d="M108.762 72.8745C114.185 72.8745 120.211 68.1229 122.018 65.1531C122.018 76.6342 112.711 85.9415 101.23 85.9415H100.326C108.16 83.5657 108.762 75.2503 108.762 72.8745Z" fill="url(#paint9_linear_2086_3901)"/>
<circle cx="114.336" cy="46.6244" r="14.0096" fill="url(#paint10_linear_2086_3901)" fill-opacity="0.8"/>
<g filter="url(#filter1_d_2086_3901)">
<rect x="125.12" y="56.8486" width="16.2692" height="3.3476" rx="1" transform="rotate(45 125.12 56.8486)" fill="url(#paint11_linear_2086_3901)"/>
<path fill-rule="evenodd" clip-rule="evenodd" d="M114.336 65.1532C124.57 65.1532 132.865 56.8575 132.865 46.6243C132.865 36.3911 124.57 28.0955 114.336 28.0955C104.103 28.0955 95.8076 36.3911 95.8076 46.6243C95.8076 56.8575 104.103 65.1532 114.336 65.1532ZM114.337 60.6339C122.074 60.6339 128.346 54.3616 128.346 46.6243C128.346 38.887 122.074 32.6147 114.337 32.6147C106.599 32.6147 100.327 38.887 100.327 46.6243C100.327 54.3616 106.599 60.6339 114.337 60.6339Z" fill="url(#paint12_radial_2086_3901)"/>
<rect x="130.826" y="60.6338" width="18.193" height="6.06434" rx="1" transform="rotate(45 130.826 60.6338)" fill="url(#paint13_linear_2086_3901)"/>
</g>
<defs>
<filter id="filter0_d_2086_3901" x="78.3662" y="2.78564" width="31.3037" height="14.8462" filterUnits="userSpaceOnUse" color-interpolation-filters="sRGB">
<feFlood flood-opacity="0" result="BackgroundImageFix"/>
<feColorMatrix in="SourceAlpha" type="matrix" values="0 0 0 0 0 0 0 0 0 0 0 0 0 0 0 0 0 0 127 0" result="hardAlpha"/>
<feOffset dy="1"/>
<feGaussianBlur stdDeviation="1"/>
<feColorMatrix type="matrix" values="0 0 0 0 0.298039 0 0 0 0 0.458824 0 0 0 0 0.972549 0 0 0 0.3 0"/>
<feBlend mode="normal" in2="BackgroundImageFix" result="effect1_dropShadow_2086_3901"/>
<feBlend mode="normal" in="SourceGraphic" in2="effect1_dropShadow_2086_3901" result="shape"/>
</filter>
<filter id="filter1_d_2086_3901" x="91.8076" y="28.0955" width="55.4688" height="59.2766" filterUnits="userSpaceOnUse" color-interpolation-filters="sRGB">
<feFlood flood-opacity="0" result="BackgroundImageFix"/>
<feColorMatrix in="SourceAlpha" type="matrix" values="0 0 0 0 0 0 0 0 0 0 0 0 0 0 0 0 0 0 127 0" result="hardAlpha"/>
<feOffset dy="6"/>
<feGaussianBlur stdDeviation="2"/>
<feColorMatrix type="matrix" values="0 0 0 0 0.278431 0 0 0 0 0.443137 0 0 0 0 0.972549 0 0 0 0.3 0"/>
<feBlend mode="normal" in2="BackgroundImageFix" result="effect1_dropShadow_2086_3901"/>
<feBlend mode="normal" in="SourceGraphic" in2="effect1_dropShadow_2086_3901" result="shape"/>
</filter>
<linearGradient id="paint0_linear_2086_3901" x1="94" y1="62.4417" x2="94" y2="100.29" gradientUnits="userSpaceOnUse">
<stop stop-color="#E5EBFC"/>
<stop offset="1" stop-color="#F5F7FA" stop-opacity="0"/>
</linearGradient>
<linearGradient id="paint1_linear_2086_3901" x1="127.442" y1="40.413" x2="70.8419" y2="80.5981" gradientUnits="userSpaceOnUse">
<stop stop-color="#CFDAFC"/>
<stop offset="0.764778" stop-color="#B5C9F8"/>
<stop offset="1" stop-color="#AAC1F6"/>
</linearGradient>
<linearGradient id="paint2_linear_2086_3901" x1="159.528" y1="127.067" x2="-8.3812" y2="-4.04112" gradientUnits="userSpaceOnUse">
<stop offset="0.095249" stop-color="white"/>
<stop offset="1" stop-color="white" stop-opacity="0.3"/>
</linearGradient>
<linearGradient id="paint3_linear_2086_3901" x1="119.759" y1="49.3358" x2="108.096" y2="70.1937" gradientUnits="userSpaceOnUse">
<stop stop-color="#CFDAFC"/>
<stop offset="0.764778" stop-color="#B5C9F8"/>
<stop offset="1" stop-color="#AAC1F6"/>
</linearGradient>
<linearGradient id="paint4_linear_2086_3901" x1="119.759" y1="61.9896" x2="108.096" y2="82.8475" gradientUnits="userSpaceOnUse">
<stop stop-color="#CFDAFC"/>
<stop offset="0.764778" stop-color="#B5C9F8"/>
<stop offset="1" stop-color="#AAC1F6"/>
</linearGradient>
<linearGradient id="paint5_linear_2086_3901" x1="119.759" y1="74.6434" x2="108.096" y2="95.5013" gradientUnits="userSpaceOnUse">
<stop stop-color="#CFDAFC"/>
<stop offset="0.764778" stop-color="#B5C9F8"/>
<stop offset="1" stop-color="#AAC1F6"/>
</linearGradient>
<linearGradient id="paint6_linear_2086_3901" x1="95.9678" y1="87.2972" x2="82.4007" y2="99.1595" gradientUnits="userSpaceOnUse">
<stop stop-color="#CFDAFC"/>
<stop offset="0.764778" stop-color="#B5C9F8"/>
<stop offset="1" stop-color="#AAC1F6"/>
</linearGradient>
<linearGradient id="paint7_linear_2086_3901" x1="88.5763" y1="0.979937" x2="88.5371" y2="14.5375" gradientUnits="userSpaceOnUse">
<stop stop-color="#9FC0FF"/>
<stop offset="0.672113" stop-color="#3E67F8"/>
<stop offset="1" stop-color="#79A4F6"/>
</linearGradient>
<linearGradient id="paint8_linear_2086_3901" x1="105.749" y1="3.80716" x2="101.266" y2="14.3999" gradientUnits="userSpaceOnUse">
<stop stop-color="#CFDAFC"/>
<stop offset="0.764778" stop-color="#B5C9F8"/>
<stop offset="1" stop-color="#AAC1F6"/>
</linearGradient>
<linearGradient id="paint9_linear_2086_3901" x1="93.0955" y1="49.1162" x2="122.589" y2="107.462" gradientUnits="userSpaceOnUse">
<stop stop-color="#5E7EFD"/>
<stop offset="0.906503" stop-color="white" stop-opacity="0"/>
<stop offset="0.911458" stop-color="white" stop-opacity="0"/>
</linearGradient>
<linearGradient id="paint10_linear_2086_3901" x1="114.336" y1="32.6147" x2="114.336" y2="60.634" gradientUnits="userSpaceOnUse">
<stop stop-color="white" stop-opacity="0.56"/>
<stop offset="1" stop-color="white" stop-opacity="0"/>
</linearGradient>
<linearGradient id="paint11_linear_2086_3901" x1="129.698" y1="56.5231" x2="129.684" y2="60.7249" gradientUnits="userSpaceOnUse">
<stop stop-color="#9FC0FF"/>
<stop offset="0.672113" stop-color="#3E67F8"/>
<stop offset="1" stop-color="#79A4F6"/>
</linearGradient>
<radialGradient id="paint12_radial_2086_3901" cx="0" cy="0" r="1" gradientUnits="userSpaceOnUse" gradientTransform="translate(112.077 48.8839) rotate(116.565) scale(20.2106 20.2119)">
<stop stop-color="#9FC0FF"/>
<stop offset="0.672113" stop-color="#3E67F8"/>
<stop offset="1" stop-color="#79A4F6"/>
</radialGradient>
<linearGradient id="paint13_linear_2086_3901" x1="135.945" y1="60.0441" x2="135.903" y2="67.6556" gradientUnits="userSpaceOnUse">
<stop stop-color="#9FC0FF"/>
<stop offset="0.672113" stop-color="#3E67F8"/>
<stop offset="1" stop-color="#79A4F6"/>
</linearGradient>
</defs>
</svg>
