<svg width="16" height="16" viewBox="0 0 16 16" fill="none" xmlns="http://www.w3.org/2000/svg">
<path d="M14.1874 0.125C14.5854 0.12516 14.9705 0.265957 15.2747 0.522518C15.5789 0.77908 15.7826 1.1349 15.8499 1.52712C15.9172 1.91934 15.8438 2.32273 15.6425 2.66603C15.4412 3.00932 15.1251 3.27044 14.7499 3.40325V12.5967C15.0189 12.6915 15.2594 12.8529 15.4491 13.0659C15.6388 13.2788 15.7714 13.5363 15.8346 13.8144C15.8978 14.0925 15.8895 14.3821 15.8105 14.6561C15.7314 14.9301 15.5842 15.1796 15.3826 15.3813C15.181 15.583 14.9316 15.7303 14.6577 15.8095C14.3837 15.8886 14.0941 15.8971 13.816 15.8341C13.5379 15.771 13.2803 15.6385 13.0673 15.449C12.8542 15.2594 12.6927 15.0189 12.5978 14.75H3.40317C3.30801 15.0187 3.14635 15.2588 2.93328 15.4481C2.7202 15.6374 2.46265 15.7697 2.18465 15.8325C1.90665 15.8954 1.61726 15.8868 1.34348 15.8076C1.06969 15.7284 0.82043 15.5811 0.618946 15.3795C0.417462 15.1779 0.270319 14.9286 0.191245 14.6548C0.112171 14.3809 0.103741 14.0915 0.166742 13.8136C0.229744 13.5356 0.362123 13.2781 0.551531 13.0652C0.74094 12.8522 0.981206 12.6906 1.24992 12.5956V3.40437C0.981357 3.30916 0.741278 3.1475 0.552065 2.93446C0.362851 2.72141 0.230665 2.46392 0.167829 2.186C0.104994 1.90808 0.113557 1.61877 0.192718 1.34505C0.271879 1.07133 0.419062 0.822109 0.620544 0.620627C0.822025 0.419146 1.07124 0.271963 1.34497 0.192801C1.61869 0.11364 1.908 0.105078 2.18592 0.167913C2.46384 0.230748 2.72133 0.362935 2.93437 0.552148C3.14742 0.741361 3.30908 0.98144 3.40429 1.25H12.5955C12.7119 0.92085 12.9275 0.635895 13.2126 0.434407C13.4977 0.232919 13.8383 0.124817 14.1874 0.125ZM1.81242 13.625C1.66323 13.625 1.52016 13.6843 1.41467 13.7898C1.30918 13.8952 1.24992 14.0383 1.24992 14.1875C1.24992 14.3367 1.30918 14.4798 1.41467 14.5852C1.52016 14.6907 1.66323 14.75 1.81242 14.75C1.9616 14.75 2.10468 14.6907 2.21016 14.5852C2.31565 14.4798 2.37492 14.3367 2.37492 14.1875C2.37492 14.0383 2.31565 13.8952 2.21016 13.7898C2.10468 13.6843 1.9616 13.625 1.81242 13.625ZM14.1874 13.625C14.0382 13.625 13.8952 13.6843 13.7897 13.7898C13.6842 13.8952 13.6249 14.0383 13.6249 14.1875C13.6249 14.3367 13.6842 14.4798 13.7897 14.5852C13.8952 14.6907 14.0382 14.75 14.1874 14.75C14.3366 14.75 14.4797 14.6907 14.5852 14.5852C14.6907 14.4798 14.7499 14.3367 14.7499 14.1875C14.7499 14.0383 14.6907 13.8952 14.5852 13.7898C14.4797 13.6843 14.3366 13.625 14.1874 13.625ZM13.6249 3.40437C13.3878 3.32008 13.1724 3.18393 12.9945 3.00586C12.8166 2.82778 12.6807 2.61226 12.5967 2.375H3.40317C3.23442 2.85313 2.85417 3.23338 2.37604 3.40213V12.5956C2.85529 12.7644 3.23442 13.1446 3.40429 13.6239H12.5955C12.7643 13.1446 13.1457 12.7644 13.6249 12.5945V3.40325V3.40437ZM5.28417 4.58563L9.68629 8.98775L9.68742 6.3125H10.8124V10.8125H6.31242V9.6875H8.79529L4.48879 5.381L5.28417 4.5845V4.58563ZM1.81242 1.25C1.66323 1.25 1.52016 1.30926 1.41467 1.41475C1.30918 1.52024 1.24992 1.66332 1.24992 1.8125C1.24992 1.96168 1.30918 2.10476 1.41467 2.21025C1.52016 2.31574 1.66323 2.375 1.81242 2.375C1.9616 2.375 2.10468 2.31574 2.21016 2.21025C2.31565 2.10476 2.37492 1.96168 2.37492 1.8125C2.37492 1.66332 2.31565 1.52024 2.21016 1.41475C2.10468 1.30926 1.9616 1.25 1.81242 1.25ZM14.1874 1.25C14.0382 1.25 13.8952 1.30926 13.7897 1.41475C13.6842 1.52024 13.6249 1.66332 13.6249 1.8125C13.6249 1.96168 13.6842 2.10476 13.7897 2.21025C13.8952 2.31574 14.0382 2.375 14.1874 2.375C14.3366 2.375 14.4797 2.31574 14.5852 2.21025C14.6907 2.10476 14.7499 1.96168 14.7499 1.8125C14.7499 1.66332 14.6907 1.52024 14.5852 1.41475C14.4797 1.30926 14.3366 1.25 14.1874 1.25Z" fill="#79809A"/>
</svg>
