<svg xmlns="http://www.w3.org/2000/svg" xmlns:xlink="http://www.w3.org/1999/xlink" fill="none" version="1.1" width="24" height="24" viewBox="0 0 24 24"><g style="mix-blend-mode:passthrough"><g style="mix-blend-mode:passthrough" transform="matrix(0.8660253882408142,0.5,-0.5,0.8660253882408142,3.3493653511686716,-4.990357413280435)"><path d="M13.25040640625,4.8559717773437505L13.16499640625,4.33584377734375C13.12024640625,4.06335177734375,13.30486640625,3.80617747734375,13.57736640625,3.76143005734375C13.604146406249999,3.75703185734375,13.63124640625,3.75482177734375,13.65838640625,3.75482177734375L19.48681640625,3.75482177734375C19.762956406249998,3.75482177734375,19.98681640625,3.97867977734375,19.98681640625,4.25482177734375C19.98681640625,4.29570277734375,19.98180640625,4.33642877734375,19.97188640625,4.37608977734375L19.83561640625,4.9211717773437496Q19.63355640625,5.72941177734375,18.97689640625,6.24211177734375Q18.58334640625,6.54939177734375,18.12641640625,6.67251177734375L18.89985640625,9.38037177734375Q19.948486406249998,9.81718177734375,20.66879640625,10.53750177734375Q21.98681640625,11.85551177734375,21.98681640625,13.71948177734375C21.98681640625,13.99562177734375,21.76291640625,14.21952177734375,21.48681640625,14.21952177734375L16.98681640625,14.21952177734375L16.98681640625,18.25482177734375L16.98681640625,18.75482177734375L15.98681640625,18.75482177734375L15.98681640625,18.25482177734375L15.98681640625,14.21952177734375L11.48681640625,14.21952177734375C11.21067440625,14.21952177734375,10.98681640625,13.99562177734375,10.98681640625,13.71948177734375Q10.98681640625,11.85551177734375,12.30483640625,10.53750177734375Q13.02511640625,9.81722177734375,14.07319640625,9.380411777343749L14.84853640625,6.66754177734375Q14.39880640625,6.53797177734375,14.019726406250001,6.21606177734375Q13.38528640625,5.67730177734375,13.25040640625,4.8559717773437505ZM14.66701640625,5.45381177734375Q15.02148640625,5.75482177734375,15.486506406250001,5.75482177734375C15.53298640625,5.75482177734375,15.579226406250001,5.76130177734375,15.62390640625,5.7740717773437495C15.88942640625,5.84995177734375,16.04314640625,6.1267117773437505,15.967266406250001,6.3922217773437495L14.96695640625,9.89222177734375C14.92333640625,10.044831777343749,14.80985640625,10.167671777343749,14.66116640625,10.22321177734375Q13.65897640625,10.597571777343749,13.01193640625,11.24460177734375Q12.16829640625,12.08825177734375,12.01894640625,13.21948177734375L20.954686406249998,13.21948177734375Q20.80533640625,12.08825177734375,19.96169640625,11.24460177734375Q19.31468640625,10.597601777343751,18.31193640625,10.22324177734375C18.16318640625,10.16771177734375,18.04965640625,10.04482177734375,18.00604640625,9.892141777343749L17.00634640625,6.39214177734375C16.99359640625,6.34748177734375,16.98712640625,6.3012617773437505,16.98712640625,6.25482177734375C16.98712640625,5.97868177734375,17.21097640625,5.75482177734375,17.48712640625,5.75482177734375Q17.97608640625,5.75482177734375,18.361486406250002,5.45391177734375Q18.715466406250002,5.17753177734375,18.84436640625,4.75482177734375L14.24856640625,4.75482177734375Q14.33633640625,5.17301177734375,14.66701640625,5.45381177734375Z" fill="#666666" fill-opacity="1"/></g></g></svg>