<svg xmlns="http://www.w3.org/2000/svg" xmlns:xlink="http://www.w3.org/1999/xlink" fill="none" version="1.1" width="24" height="24" viewBox="0 0 24 24"><defs><clipPath id="master_svg0_2403_016431"><rect x="4" y="4" width="16" height="16" rx="0"/></clipPath></defs><g style="mix-blend-mode:passthrough"><g style="mix-blend-mode:passthrough" clip-path="url(#master_svg0_2403_016431)"><g style="mix-blend-mode:passthrough"><path d="M8.982732500000001,18.087545871162412L16.1856625,6.082610871162414L15.3281625,5.568115472762415L8.1252325,17.573045871162414L8.982732500000001,18.087545871162412ZM12.0507825,6.8519558711624144C12.5864725,6.8519558711624144,13.095152500000001,6.909825871162415,13.5754125,7.013755871162415L12.984512500000001,7.9985858711624145C12.6847125,7.952645871162415,12.3733325,7.927965871162415,12.0507825,7.927965871162415C10.1977425,7.927965871162415,8.7133825,8.742415871162414,7.6748125,9.724845871162415C7.1549825,10.216575871162416,6.7628325,10.736425871162414,6.5067425,11.185415871162416C6.3787925,11.409745871162414,6.2912525,11.605095871162415,6.2378625,11.759835871162416C6.1834225,11.917605871162415,6.1779325,11.994385871162415,6.1775725,11.999525871162415C6.1775725,12.089505871162414,6.2316424999999995,12.401165871162416,6.4635324999999995,12.868395871162415C6.6826825,13.309975871162415,7.0252324999999995,13.817075871162414,7.5032025,14.295045871162415C7.8266325000000005,14.618475871162415,8.2121225,14.929005871162415,8.665212499999999,15.197425871162414L8.1116625,16.120045871162414C6.0273335,14.882555871162415,5.1015625,12.862435871162415,5.1015625,11.999525871162415C5.1015625,10.712635871162416,7.6753425,6.8519558711624144,12.0507825,6.8519558711624144ZM12.0507825,16.071045871162415C11.7096625,16.071045871162415,11.385502500000001,16.049845871162415,11.077752499999999,16.010245871162414L10.4809525,17.004845871162416C10.9678725,17.096445871162416,11.490762499999999,17.147145871162415,12.0507825,17.147145871162415C16.940962499999998,17.147145871162415,18.999962500000002,13.286425871162415,18.999962500000002,11.999525871162415C18.999962500000002,11.156595871162414,17.8957625,9.209375871162415,15.9041625,7.9661858711624145L15.3505625,8.888835871162414C15.7495625,9.139445871162415,16.1089625,9.424285871162414,16.426762500000002,9.724845871162415C16.9465625,10.216575871162416,17.3387625,10.736425871162414,17.594862499999998,11.185415871162416C17.7227625,11.409745871162414,17.8102625,11.605095871162415,17.8636625,11.759835871162416C17.9196625,11.921965871162413,17.9238625,11.998285871162414,17.923962500000002,11.999525871162415C17.923962500000002,12.089505871162414,17.8699625,12.401165871162416,17.6380625,12.868395871162415C17.4188625,13.309975871162415,17.076362500000002,13.817075871162414,16.5983625,14.295045871162415C15.6555625,15.237875871162414,14.1852525,16.071045871162415,12.0507825,16.071045871162415ZM12.0615125,9.426395871162415C12.0835225,9.426395871162415,12.1054625,9.426665871162415,12.1273325,9.427215871162414L11.385782500000001,10.663135871162414C10.8980625,10.910115871162414,10.5637425,11.416105871162415,10.5637425,12.000175871162416C10.5637425,12.011025871162413,10.5638525,12.021845871162416,10.5640825,12.032635871162414L9.821972500000001,13.269475871162413C9.6092225,12.894915871162414,9.4877325,12.461735871162414,9.4877325,12.000175871162416C9.4877325,10.578715871162416,10.6400525,9.426395871162415,12.0615125,9.426395871162415ZM14.2736225,10.683745871162415L13.5546925,11.881955871162415C13.5577425,11.920965871162416,13.5592925,11.960385871162416,13.5592925,12.000175871162416C13.5592925,12.614755871162416,13.1891325,13.142885871162415,12.6596025,13.373775871162415L11.941152500000001,14.571195871162415C11.981042500000001,14.573035871162414,12.021172499999999,14.573965871162414,12.0615125,14.573965871162414C13.4829825,14.573965871162414,14.6353025,13.421635871162415,14.6353025,12.000175871162416C14.6353025,11.519135871162415,14.5033325,11.068915871162414,14.2736225,10.683745871162415Z" fill="#666666" fill-opacity="1"/></g></g></g></svg>