<svg xmlns="http://www.w3.org/2000/svg" xmlns:xlink="http://www.w3.org/1999/xlink" fill="none" version="1.1" width="24" height="24" viewBox="0 0 24 24"><defs><clipPath id="master_svg0_2403_016405"><rect x="4" y="4" width="16" height="16" rx="0"/></clipPath></defs><g style="mix-blend-mode:passthrough"><g style="mix-blend-mode:passthrough" clip-path="url(#master_svg0_2403_016405)"><g style="mix-blend-mode:passthrough"><path d="M12.0507825,17.14706042060852C16.940962499999998,17.14706042060852,18.999962500000002,13.28642042060852,18.999962500000002,11.99953042060852C18.999962500000002,10.71264042060852,16.4262625,6.8519604206085205,12.0507825,6.8519604206085205C7.6753425,6.8519604206085205,5.1015625,10.71264042060852,5.1015625,11.99953042060852C5.1015625,13.28642042060852,7.1605925,17.14706042060852,12.0507825,17.14706042060852ZM17.8636625,11.75984042060852C17.9196625,11.92196042060852,17.9238625,11.99829042060852,17.923962500000002,11.99953042060852C17.923962500000002,12.08950042060852,17.8699625,12.40116042060852,17.6380625,12.86840042060852C17.4188625,13.309980420608522,17.076362500000002,13.81708042060852,16.5983625,14.29505042060852C15.6555625,15.237870420608521,14.1852525,16.07109042060852,12.0507825,16.07109042060852C9.9163125,16.07109042060852,8.4460225,15.237870420608521,7.5032025,14.29505042060852C7.0252324999999995,13.81708042060852,6.6826825,13.309980420608522,6.4635324999999995,12.86840042060852C6.2316424999999995,12.40116042060852,6.1775725,12.08950042060852,6.1775725,11.99953042060852C6.1779325,11.994390420608521,6.1834225,11.91761042060852,6.2378625,11.75984042060852C6.2912525,11.60509042060852,6.3787925,11.409740420608522,6.5067425,11.18542042060852C6.7628325,10.73643042060852,7.1549825,10.216580420608521,7.6748125,9.72485042060852C8.7133825,8.742420420608521,10.1977425,7.927970420608521,12.0507825,7.927970420608521C13.9038225,7.927970420608521,15.3881625,8.742420420608521,16.426762500000002,9.72485042060852C16.9465625,10.216580420608521,17.3387625,10.73643042060852,17.594862499999998,11.18542042060852C17.7227625,11.409740420608522,17.8102625,11.60509042060852,17.8636625,11.75984042060852ZM12.0615125,14.573960420608522C13.4829825,14.573960420608522,14.6353025,13.42164042060852,14.6353025,12.00018042060852C14.6353025,10.578720420608521,13.4829825,9.42639042060852,12.0615125,9.42639042060852C10.6400525,9.42639042060852,9.4877325,10.578720420608521,9.4877325,12.00018042060852C9.4877325,13.42164042060852,10.6400525,14.573960420608522,12.0615125,14.573960420608522ZM12.0615125,10.50240042060852C12.8887125,10.50240042060852,13.5592925,11.172980420608521,13.5592925,12.00018042060852C13.5592925,12.82738042060852,12.8887125,13.497960420608521,12.0615125,13.497960420608521C11.2343125,13.497960420608521,10.5637425,12.82738042060852,10.5637425,12.00018042060852C10.5637425,11.172980420608521,11.2343125,10.50240042060852,12.0615125,10.50240042060852Z" fill-rule="evenodd" fill="#666666" fill-opacity="1"/></g></g></g></svg>