<svg width="24" height="24" viewBox="0 0 24 24" fill="none" xmlns="http://www.w3.org/2000/svg">
<path d="M15.5 11.134C16.1667 11.5189 16.1667 12.4811 15.5 12.866L11 15.4641C10.3333 15.849 9.5 15.3679 9.5 14.5981L9.5 9.40192C9.5 8.63212 10.3333 8.151 11 8.5359L15.5 11.134Z" fill="white"/>
<path d="M7 3.6H17C18.8778 3.6 20.4 5.12223 20.4 7V17C20.4 18.8778 18.8778 20.4 17 20.4H7C5.12223 20.4 3.6 18.8778 3.6 17V7C3.6 5.12223 5.12223 3.6 7 3.6Z" fill="#EF5533" stroke="#EF5533" stroke-width="1.2"/>
<path d="M8 14C8 15.1046 8.89543 16 10 16H14C15.1046 16 16 15.1046 16 14V10C16 8.89543 15.1046 8 14 8H10C8.89543 8 8 8.89543 8 10V14Z" fill="white"/>
</svg>
