<svg xmlns="http://www.w3.org/2000/svg" xmlns:xlink="http://www.w3.org/1999/xlink" fill="none" version="1.1" width="14.707820257486901" height="14.707820257486901" viewBox="0 0 14.707820257486901 14.707820257486901"><g transform="matrix(0.7071067690849304,0.7071067690849304,-0.7071067690849304,0.7071067690849304,2.1539104974667245,-5.199999631276726)"><path d="M13.36302012874345,4.27564C13.36302012874345,4.27564,13.36302012874345,6.88765e-8,13.36302012874345,6.88765e-8C13.36302012874345,6.88765e-8,11.74525012874345,0,11.74525012874345,0C11.74525012874345,0,11.74525012874345,4.27564,11.74525012874345,4.27564C11.74525012874345,4.27564,7.3539101287434505,4.27564,7.3539101287434505,4.27564C7.3539101287434505,4.27564,7.3539101287434505,5.89342,7.3539101287434505,5.89342C7.3539101287434505,5.89342,11.74525012874345,5.89342,11.74525012874345,5.89342C11.74525012874345,5.89342,11.74525012874345,10.4,11.74525012874345,10.4C11.74525012874345,10.4,13.36302012874345,10.4,13.36302012874345,10.4C13.36302012874345,10.4,13.36302012874345,5.89342,13.36302012874345,5.89342C13.36302012874345,5.89342,17.75391012874345,5.89342,17.75391012874345,5.89342C17.75391012874345,5.89342,17.75391012874345,4.27564,17.75391012874345,4.27564C17.75391012874345,4.27564,13.36302012874345,4.27564,13.36302012874345,4.27564Z" fill="#94BF69" fill-opacity="1"/></g></svg>