<svg width="32" height="32" viewBox="0 0 32 32" fill="none" xmlns="http://www.w3.org/2000/svg">
<path d="M24.7132 12.5967L24.4657 11.4676C23.613 7.57751 20.1441 4.66699 16 4.66699C11.8559 4.66699 8.38699 7.57751 7.53431 11.4676L7.2868 12.5967L6.18485 12.9459C3.7562 13.7155 2 15.9888 2 18.667C2 21.9807 4.68629 24.667 8 24.667H10.6667V26.667H8C3.58172 26.667 0 23.0853 0 18.667C0 15.092 2.34498 12.0647 5.58069 11.0393C6.63027 6.25099 10.8966 2.66699 16 2.66699C21.1034 2.66699 25.3697 6.25099 26.4193 11.0393C29.655 12.0647 32 15.092 32 18.667C32 23.0853 28.4183 26.667 24 26.667H21.3333V24.667H24C27.3137 24.667 30 21.9807 30 18.667C30 15.9888 28.2438 13.7155 25.8151 12.9459L24.7132 12.5967Z" fill="#333333"/>
<path d="M17 16.4144V26.667H15V16.4147L11.7169 19.6977L10.3027 18.2835L15.9596 12.6267L16 12.6671L16.0406 12.6265L21.6974 18.2834L20.2832 19.6976L17 16.4144Z" fill="#333333"/>
</svg>
