<svg width="175" height="26" viewBox="0 0 175 26" fill="none" xmlns="http://www.w3.org/2000/svg">
<path fill-rule="evenodd" clip-rule="evenodd" d="M22.6765 22.0518C22.6765 22.0518 22.7006 22.0533 22.7291 22.055L22.7901 22.0586L22.8145 22.05L22.8286 22.0623C22.9351 22.0805 23.0152 22.1714 23.0152 22.2792C23.0152 22.3364 22.9928 22.3916 22.9535 22.4326L22.9326 22.4704L22.9165 22.4664C20.3821 24.7446 17.1071 26 13.6929 26C12.6181 26 11.5401 25.8741 10.488 25.6257L10.4786 25.6232C10.3852 25.5957 10.3205 25.5101 10.3205 25.4124C10.3205 25.3247 10.3734 25.2459 10.4519 25.2111L10.4517 25.2078L10.4734 25.203C10.4746 25.2025 10.4759 25.2023 10.4771 25.2018C10.49 25.1975 10.5036 25.1945 10.5182 25.1935C10.5305 25.1917 10.5784 25.1884 10.9119 25.1723L10.9381 25.1708C12.1811 25.1051 13.644 24.7993 14.9515 24.3323C15.6525 24.0817 16.8895 23.4409 16.9464 23.4112C18.5615 22.4815 20.2252 22.0102 21.8913 22.0102C21.917 22.0102 22.3075 22.0258 22.6765 22.0518ZM21.8915 17.6144C23.2368 17.6144 24.5645 17.8154 25.8377 18.2118C25.9042 18.2325 25.9576 18.2811 25.9843 18.3453C26.0113 18.4098 26.0085 18.4821 25.9765 18.5441C25.6763 19.1249 25.3309 19.6901 24.9501 20.2239C24.8942 20.3022 24.7934 20.338 24.6995 20.3133C23.7909 20.072 22.8461 19.9496 21.8915 19.9496C20.4593 19.9496 19.0294 20.2473 17.6413 20.8344C17.3816 20.9443 17.1214 21.0667 16.8682 21.1976C15.0116 22.2291 12.99 22.9779 11.1762 23.3061L11.1327 23.3278L11.1236 23.3155C10.1556 23.4835 9.16398 23.5688 8.17534 23.5688C7.33129 23.5688 6.12529 23.392 5.57568 23.2729C5.47216 23.2502 5.37745 23.2069 5.29408 23.1437C4.30696 22.3963 3.52966 21.6243 2.77351 20.6402C2.71331 20.5619 2.71231 20.4556 2.77125 20.376C2.83044 20.2962 2.9322 20.2662 3.02489 20.3009C4.64876 20.91 6.33359 21.206 8.17534 21.206C10.1267 21.206 12.0606 20.8067 13.9228 20.0191C14.3134 19.8536 14.7051 19.6672 15.0869 19.4647C17.1279 18.3799 19.0374 17.7859 20.9238 17.6494L20.9648 17.6313L20.9752 17.6459C21.2817 17.625 21.5898 17.6144 21.8915 17.6144ZM19.9106 0C19.9962 0 20.0743 0.0465979 20.1154 0.12191L20.1189 0.127955L20.1254 0.141557C20.1343 0.159944 20.1418 0.175561 20.1494 0.192689C20.3448 0.596201 20.531 1.07629 20.6531 1.40801C20.7221 1.59642 20.7783 1.75762 20.8133 1.85963C20.8493 1.96517 20.8662 2.01429 20.8728 2.04074L20.8738 2.04048C21.2483 3.27999 21.438 4.57138 21.438 5.87839C21.438 7.668 21.0876 9.40421 20.3962 11.0384C19.7285 12.617 18.7728 14.0348 17.5553 15.2521C16.3379 16.4695 14.9203 17.4254 13.3415 18.0933C11.7073 18.7845 9.97138 19.1349 8.18177 19.1349C6.82161 19.1349 5.51057 18.9553 4.28467 18.6011C3.05096 18.2447 1.89508 17.709 0.84927 17.0087C0.762623 16.9506 0.696379 16.8639 0.662375 16.7637C0.32561 15.7723 0.127884 14.9353 0.00194381 13.966C-0.0096427 13.8769 0.031162 13.793 0.108489 13.7476C0.185313 13.7021 0.278257 13.7066 0.350295 13.7597C0.800153 14.0912 1.44698 14.5516 1.97417 14.8657C2.78573 15.3708 3.72424 15.6375 4.68919 15.6375C6.06521 15.6375 7.35887 15.1015 8.33189 14.1285C9.20491 13.2552 9.73587 12.0996 9.8263 10.8739C9.93057 9.46441 9.43286 8.04532 8.46085 6.98012C8.45959 6.97886 8.44674 6.96374 8.4344 6.94964C8.42609 6.94007 8.41803 6.93075 8.41476 6.92722L8.40796 6.91916C8.37143 6.87659 8.35128 6.82294 8.35128 6.76702C8.35128 6.69826 8.38126 6.63378 8.43264 6.5897L8.43314 6.58819L8.45405 6.57308C8.48629 6.55066 8.51803 6.53454 8.54599 6.52043C8.55984 6.51313 8.57344 6.50658 8.58629 6.49902L10.2401 5.54414L10.2406 5.5449C10.2666 5.52878 10.3459 5.48319 10.6076 5.33181C12.2073 4.40841 18.5383 0.754131 19.7809 0.0365227C19.7988 0.0261956 19.8176 0.0178835 19.8373 0.0118384C19.8595 0.00428197 19.8849 0 19.9106 0ZM18.7091 3.36361L18.6985 3.36613C18.6794 3.37243 18.6638 3.382 18.6446 3.39359C18.6376 3.39787 18.6303 3.40215 18.623 3.40643L18.6132 3.41172C17.4129 4.10314 12.627 6.86627 11.6693 7.4204L11.6557 7.42821C11.6459 7.43375 11.6333 7.44106 11.6285 7.44383C11.627 7.44484 11.625 7.44609 11.623 7.44735L11.6096 7.45894C11.5907 7.47733 11.5804 7.50176 11.5804 7.52796C11.5804 7.53778 11.5819 7.54785 11.5849 7.55743L11.5869 7.56397C11.5885 7.56901 11.6013 7.60528 11.6041 7.61183C12.1655 8.96368 12.3176 10.442 12.0446 11.8857C11.7645 13.3645 11.0517 14.7113 9.98322 15.7798C9.80791 15.9549 9.52782 16.1876 9.15075 16.4715L9.15 16.4705C9.14143 16.478 9.13262 16.4846 9.12556 16.4896L9.07292 16.5271C9.05554 16.5395 9.03816 16.5516 9.02456 16.5614L8.99761 16.5821C8.97242 16.6004 8.95806 16.6284 8.95806 16.6594C8.95806 16.7123 9.00113 16.7556 9.05403 16.7556L9.06335 16.7548L9.06738 16.7551C9.06814 16.7551 9.06864 16.7554 9.06939 16.7554C9.12959 16.7581 9.21196 16.7513 9.23916 16.7493C9.24294 16.7491 9.24596 16.7488 9.24798 16.7486C10.3454 16.643 11.4167 16.3717 12.432 15.942C12.8212 15.7775 13.2038 15.5891 13.5687 15.3818C14.4191 14.8995 15.2047 14.3003 15.9042 13.601C16.9079 12.5971 17.6955 11.4291 18.2454 10.1286C18.8141 8.78383 19.1026 7.35391 19.1026 5.87839C19.1026 5.07867 19.0167 4.28273 18.8466 3.51323L18.8461 3.51046C18.8451 3.50567 18.8343 3.45832 18.8313 3.44673L18.8293 3.43842C18.8192 3.38477 18.7663 3.348 18.7091 3.36361ZM21.8915 13.2277C23.702 13.2277 25.4855 13.5098 27.1918 14.0654C27.3008 14.1007 27.3673 14.2088 27.3497 14.3219C27.2537 14.9495 27.1127 15.5757 26.9311 16.182C26.9124 16.2442 26.8706 16.2948 26.8129 16.3243C26.7789 16.3422 26.7419 16.351 26.7046 16.351C26.6789 16.351 26.653 16.3467 26.6281 16.3382C25.1105 15.8238 23.5168 15.5631 21.8915 15.5631C21.3761 15.5631 20.8567 15.5898 20.3479 15.6422C20.2751 15.6505 20.2076 15.6148 20.1726 15.5505C20.1374 15.4866 20.1439 15.411 20.1892 15.3538C20.6703 14.7473 21.1086 14.0994 21.4917 13.4284C21.5622 13.3048 21.6952 13.2277 21.8388 13.2277H21.8915Z" fill="white"/>
<path fill-rule="evenodd" clip-rule="evenodd" d="M47.5456 20.6289H46.2855C46.0689 20.1456 45.8593 19.6267 45.6558 19.0733C45.4513 18.5199 45.2417 17.9376 45.0251 17.3263C44.8216 17.9247 44.618 18.5008 44.4145 19.0542C44.211 19.6075 44.0075 20.1325 43.8037 20.6289H40.7869C40.5834 20.1325 40.3799 19.6017 40.1764 19.0353C39.9726 18.4688 39.7623 17.8806 39.5464 17.2691C39.3301 17.8806 39.117 18.4688 38.9064 19.0353C38.6968 19.6017 38.4898 20.1325 38.2863 20.6289H36.6249C36.9939 19.7516 37.3568 18.8186 37.7137 17.832C38.0696 16.8462 38.4137 15.8563 38.7444 14.8636C38.3875 13.7438 38.054 12.6272 37.7422 11.5134C37.4304 10.3993 37.1594 9.34013 36.9306 8.33437H38.4769C38.6172 8.93284 38.7792 9.55926 38.9636 10.2149C39.1482 10.8706 39.349 11.5489 39.5656 12.2478C39.7812 11.4977 39.9761 10.791 40.1477 10.129C40.3192 9.46733 40.463 8.86281 40.5771 8.31548H42.1043C41.9259 9.20663 41.6841 10.2124 41.3794 11.3312C41.0736 12.4524 40.7358 13.6032 40.3668 14.7876C40.6726 15.7419 40.9879 16.6774 41.3119 17.5938C41.6368 18.5103 41.964 19.3756 42.2957 20.1899C42.6257 19.3506 42.9541 18.4781 43.279 17.5749C43.603 16.6714 43.9113 15.7611 44.2047 14.8445C43.848 13.7246 43.5135 12.6143 43.2017 11.5134C42.8899 10.4124 42.6136 9.35297 42.372 8.33437H43.8989C44.0385 8.94518 44.2014 9.57916 44.3858 10.2338C44.5702 10.8897 44.7704 11.5678 44.987 12.267C45.2037 11.5038 45.3976 10.7874 45.5699 10.1197C45.7414 9.45096 45.8903 8.84972 46.0177 8.31548H47.5648C47.3734 9.23182 47.128 10.2565 46.8293 11.3894C46.5306 12.5224 46.1961 13.6866 45.8271 14.8828C46.1329 15.7991 46.4474 16.6998 46.7721 17.5842C47.097 18.4688 47.4245 19.3123 47.7552 20.1136L47.5456 20.6289ZM47.2313 22.3344L48.1182 19.6481V7.28453H36.4916V22.3855H34.4683V5.54706H50.1415V19.6564L49.2547 22.3344H47.2313Z" fill="white"/>
<path fill-rule="evenodd" clip-rule="evenodd" d="M55.6915 11.1788H65.6189V9.78511H55.6915V11.1788ZM55.6917 8.33427H65.6191V6.97865H55.6917V8.33427ZM51.9307 18.2616C52.5674 17.3581 53.1339 16.4227 53.6304 15.4552C54.1266 14.4885 54.5208 13.553 54.8134 12.6487H53.5722V5.47064H67.7576V12.6487H56.8758C56.8116 12.8782 56.7381 13.1044 56.6557 13.3271C56.5726 13.5495 56.4869 13.7688 56.3975 13.9852H68.1397V20.1568L67.2526 22.4046H65.1902L66.0773 20.2497V15.6466H64.092C63.799 16.9572 63.392 18.1921 62.8698 19.3505C62.3482 20.5084 61.7369 21.526 61.0369 22.4046H58.441C59.3695 21.3991 60.1405 20.3298 60.751 19.1969C61.3616 18.0649 61.826 16.8808 62.1447 15.6466H59.8155C59.3574 16.9572 58.7657 18.1949 58.0398 19.3598C57.3141 20.524 56.532 21.5391 55.6917 22.4046H52.9805C54.0623 21.4117 55.0074 20.3397 55.8157 19.1873C56.6237 18.0365 57.2761 16.8556 57.7723 15.6466H55.6917C55.2076 16.6393 54.7112 17.5115 54.2026 18.2616H51.9307Z" fill="white"/>
<path fill-rule="evenodd" clip-rule="evenodd" d="M87.3809 14.349V16.058H83.9069V20.6213H87.3809V22.349H78.4797V20.6213H81.9539V16.058H78.4797V14.349H87.3809ZM74.5554 17.0721V14.6495H70.7988C71.4124 12.6214 71.9192 10.631 72.3204 8.67792H70.9117V6.9878H72.6209C72.6705 6.71275 72.7179 6.44323 72.7615 6.18027C72.8051 5.91731 72.8459 5.6483 72.8836 5.37274H74.7052L74.4425 6.9878H78.1981V8.67792H74.1043C73.9415 9.46681 73.7725 10.2209 73.5972 10.9408C73.4219 11.6609 73.2466 12.3211 73.0713 12.9219H74.5924V11.1788H76.4145V12.9219H77.9537V13.3914C79.0303 12.4148 80.029 11.4136 80.9491 10.3869C81.8695 9.36052 82.6425 8.40866 83.2687 7.53262H78.5175V5.78608H86.7988C86.5109 6.27397 86.1792 6.79713 85.8039 7.35403C85.4278 7.91119 85.021 8.47138 84.5832 9.03458C84.8205 9.32299 85.0772 9.64212 85.353 9.99223C85.628 10.3431 85.9102 10.7091 86.1981 11.0909C86.4862 11.473 86.7736 11.8642 87.0615 12.2647C87.3497 12.6654 87.6252 13.0533 87.8879 13.4289H85.4094C85.0961 12.9659 84.7739 12.4901 84.4422 12.0017C84.1105 11.5136 83.7629 11.0189 83.3997 10.5182C82.9118 11.1068 82.4266 11.6514 81.9443 12.1519C81.4627 12.6528 81.0154 13.0785 80.602 13.4289H77.9537V14.6495H76.4145V16.8656L78.0855 16.6776V18.4428L76.4145 18.631V22.3865H74.5554V18.8186L71.0245 19.1942V17.4479L74.5554 17.0721Z" fill="white"/>
<path fill-rule="evenodd" clip-rule="evenodd" d="M98.11 5.354C98.0476 5.56709 97.9823 5.77666 97.9131 5.9832C97.8441 6.18974 97.7786 6.38671 97.7161 6.57462H104.157V13.4852H106.035V15.2504H104.157V20.1568L103.266 22.4046H101.112L102.016 20.2497V15.2504H93.5283V16.7715C93.5283 17.5226 93.5064 18.1707 93.4628 18.7153C93.4185 19.2596 93.35 19.7452 93.2563 20.1709C93.1623 20.5961 93.043 20.9845 92.8991 21.3351C92.7553 21.6852 92.5828 22.0358 92.3825 22.3864H90.0166C90.2544 21.9983 90.4609 21.6131 90.636 21.2318C90.8115 20.8494 90.9554 20.4429 91.0682 20.0112C91.1811 19.579 91.2624 19.1001 91.3125 18.5745C91.3622 18.0485 91.3876 17.4352 91.3876 16.7342V15.2504H89.1899V13.4852H91.3876V6.57462H95.2187C95.3688 6.19906 95.5003 5.79253 95.6129 5.354H98.11ZM98.5296 15.8971L98.8945 18.8821L96.7694 19.1418L96.4047 16.157L98.5296 15.8971ZM102.016 8.26474H93.5283V13.4852H102.016V8.26474ZM98.535 9.43273L98.8891 12.3311L96.764 12.5908L96.4099 9.69242L98.535 9.43273Z" fill="white"/>
<path fill-rule="evenodd" clip-rule="evenodd" d="M112.937 14.9076H115.052V12.822H112.937V14.9076Z" fill="white"/>
<path fill-rule="evenodd" clip-rule="evenodd" d="M132.875 22.1263C132.801 21.7656 132.713 21.3495 132.614 20.8775C132.515 20.405 132.406 19.9206 132.288 19.4236C132.17 18.9267 132.052 18.4451 131.934 17.9791C131.816 17.5131 131.707 17.1061 131.608 16.7582H133.397C133.497 17.1061 133.605 17.5008 133.723 17.9418C133.841 18.3831 133.959 18.8458 134.077 19.3302C134.195 19.8148 134.313 20.2964 134.432 20.775C134.549 21.253 134.658 21.7037 134.758 22.1263H132.875ZM129.278 11.6325H133.639C133.528 10.974 133.419 10.3091 133.313 9.63807C133.208 8.96706 133.105 8.27741 133.006 7.56912L129.278 7.69959V11.6325ZM136.137 22.1263C135.777 20.9334 135.41 19.607 135.038 18.1468C134.665 16.6867 134.31 15.118 133.975 13.4405H129.278V20.281H131.552V22.1263H127.265V5.98479L137.964 5.55609V7.36409L134.981 7.49456C135.068 8.19051 135.165 8.88318 135.271 9.57283C135.376 10.2625 135.491 10.9491 135.615 11.6325H138.169V13.4405H135.969C136.292 15.0311 136.65 16.5565 137.041 18.0164C137.433 19.4765 137.827 20.8463 138.225 22.1263H136.137ZM121.319 13.7014C121.617 13.0553 121.915 12.3501 122.214 11.5859C122.512 10.8217 122.788 10.0637 123.043 9.31188C123.298 8.56027 123.528 7.83662 123.733 7.14042C123.938 6.44473 124.108 5.83568 124.245 5.31378H126.389C126.24 5.86061 126.066 6.47268 125.867 7.14974C125.668 7.82705 125.45 8.51972 125.215 9.22801V22.1263H123.239V13.7014H121.319Z" fill="white"/>
<path fill-rule="evenodd" clip-rule="evenodd" d="M154.143 7.97915C154.043 7.54416 153.94 7.10639 153.835 6.66509C153.729 6.22405 153.59 5.78603 153.416 5.35103H155.28C155.441 5.73641 155.584 6.14017 155.708 6.56258C155.833 6.98523 155.951 7.45726 156.063 7.97915H154.143ZM154.255 22.1263C153.844 21.418 153.447 20.6566 153.062 19.843C152.677 19.0292 152.313 18.1559 151.971 17.2242C151.629 16.2922 151.31 15.295 151.011 14.2326C150.713 13.1699 150.446 12.0239 150.21 10.7937L145.475 11.0919V9.26526L149.893 8.96703C149.806 8.38317 149.728 7.78344 149.66 7.16835C149.592 6.55326 149.526 5.91021 149.464 5.2392H151.608C151.67 5.88527 151.732 6.50666 151.794 7.10311C151.856 7.69957 151.931 8.27738 152.018 8.83656L156.939 8.50105V10.3463L152.335 10.6446C152.571 11.8747 152.847 13.018 153.164 14.0739C153.481 15.1306 153.826 16.1245 154.199 17.0564C154.571 17.9881 154.975 18.8707 155.41 19.7032C155.845 20.5357 156.299 21.3434 156.771 22.1263H154.255ZM140.107 13.7014C140.455 13.043 140.781 12.3563 141.086 11.6418C141.39 10.9274 141.67 10.2096 141.925 9.48893C142.179 8.7683 142.412 8.05069 142.624 7.3361C142.835 6.62177 143.027 5.93514 143.202 5.27647H145.494C145.345 5.84824 145.177 6.4447 144.991 7.06583C144.804 7.68722 144.606 8.31466 144.394 8.94839V22.1263H142.288V13.7014H140.107Z" fill="white"/>
<path fill-rule="evenodd" clip-rule="evenodd" d="M166.09 18.5103H172.242V16.7769H166.09V18.5103ZM172.028 22.1263C172.784 20.2067 173.062 19.6679 173.062 19.6679V14.5588H166.538L166.818 8.4265H168.719L168.495 12.8067H171.887L172.297 7.43863H166.072V5.66791H174.31L173.863 12.8067H174.981V19.7425C174.043 22.7255 174.295 21.4661 174.068 22.1263H172.028ZM161.636 19.7778H163.555V12.4526H161.636V19.7778ZM158.765 14.2233C159.088 13.2294 159.371 12.2103 159.613 11.1665C159.856 10.1227 160.064 9.05419 160.238 7.96052H158.84V6.24572H165.345V7.96052H162.046C161.983 8.43305 161.915 8.9018 161.841 9.36778C161.766 9.83376 161.679 10.303 161.58 10.775H165.252V21.4366H159.921V14.2233H158.765Z" fill="white"/>
</svg>
