<svg width="132" height="25" viewBox="0 0 132 25" fill="none" xmlns="http://www.w3.org/2000/svg">
<path fill-rule="evenodd" clip-rule="evenodd" d="M4.79026 17.655C5.89121 17.9726 7.06885 18.1333 8.2903 18.1333C9.89882 18.1333 11.4562 17.8193 12.9242 17.2003C14.341 16.6015 15.6135 15.7434 16.7072 14.6497C17.8008 13.5579 18.659 12.2835 19.2578 10.8667C19.8786 9.39874 20.1926 7.83952 20.1926 6.23282C20.1926 5.05884 20.021 3.89946 19.6851 2.78573C19.6796 2.762 19.665 2.71818 19.6321 2.62324C19.6011 2.53195 19.5499 2.38771 19.4879 2.21791C19.3783 1.92031 19.2104 1.4876 19.0351 1.12609L19.0348 1.12563C19.0276 1.11118 19.0204 1.0967 19.0132 1.08044L19.0077 1.06766L19.004 1.06219C18.9675 0.994631 18.8963 0.952637 18.8196 0.952637C18.7959 0.952637 18.774 0.956288 18.7539 0.963591C18.7356 0.969068 18.7192 0.976376 18.7028 0.985505C18.1477 1.30567 16.4658 2.27643 14.7374 3.27402L14.7113 3.28909C12.9687 4.29491 11.1843 5.32479 10.4648 5.73986C10.3451 5.80948 10.2678 5.85409 10.2176 5.88304C10.1693 5.91097 10.146 5.9244 10.1344 5.93157L8.64998 6.78969C8.64838 6.79049 8.64673 6.79133 8.64505 6.7922C8.64305 6.79324 8.641 6.79432 8.63891 6.79541C8.63082 6.79967 8.62213 6.80423 8.61347 6.80795C8.58791 6.82073 8.56052 6.83533 8.5313 6.85542L8.51305 6.8682V6.87002C8.46741 6.91019 8.44001 6.96679 8.44001 7.02886C8.44001 7.07999 8.45828 7.12746 8.49114 7.1658L8.49661 7.1731C8.50027 7.17675 8.50756 7.18406 8.51487 7.19319C8.52582 7.20597 8.53678 7.21875 8.5386 7.22058C9.41133 8.17729 9.85865 9.45168 9.76554 10.717C9.68338 11.8179 9.20684 12.8568 8.42358 13.64C7.54902 14.5128 6.38783 14.9948 5.15177 14.9948C4.28634 14.9948 3.44283 14.7556 2.71434 14.3028C2.23964 14.0198 1.65904 13.6072 1.25554 13.3096C1.18981 13.2621 1.10765 13.2585 1.03827 13.2986C0.96889 13.3388 0.93237 13.4137 0.943325 13.494C1.05652 14.3649 1.23363 15.1153 1.53671 16.0063C1.56775 16.0957 1.62617 16.1724 1.70468 16.2254C2.64496 16.8534 3.68201 17.3354 4.79026 17.655ZM9.23825 15.9919C9.21017 15.9939 9.14075 15.9989 9.08817 15.9971H9.07721C9.02974 15.9971 8.99141 15.9588 8.99141 15.9113C8.99141 15.8839 9.00419 15.8584 9.0261 15.8419L9.04983 15.8237C9.05334 15.8212 9.05698 15.8186 9.06076 15.8158C9.07075 15.8086 9.08173 15.8006 9.09365 15.7927L9.14112 15.7598L9.14388 15.758C9.14936 15.7544 9.15685 15.7495 9.16303 15.7434C9.5008 15.4896 9.75275 15.2796 9.90977 15.1226C10.8701 14.164 11.5092 12.9536 11.7611 11.6262C12.0058 10.3299 11.8688 9.00254 11.3649 7.78839C11.3631 7.78109 11.3521 7.74823 11.3503 7.74458L11.3485 7.73909C11.3467 7.72999 11.3448 7.72082 11.3448 7.71171C11.3448 7.68798 11.354 7.66606 11.3704 7.64963L11.3832 7.63868C11.385 7.63685 11.3868 7.63503 11.3887 7.63503C11.3912 7.63251 11.3972 7.62912 11.4037 7.62545C11.4066 7.62382 11.4096 7.62211 11.4124 7.62042L11.4252 7.61311C12.2851 7.1165 16.583 4.63526 17.6602 4.01449L17.6694 4.00901C17.673 4.00719 17.6762 4.00537 17.6794 4.00355C17.6826 4.00172 17.6858 3.99988 17.6895 3.99806C17.6949 3.99536 17.6999 3.99266 17.7048 3.99006C17.7165 3.98385 17.7272 3.97818 17.7388 3.97432L17.7479 3.97249C17.799 3.95789 17.8465 3.99258 17.8556 4.04005L17.8574 4.04735C17.8593 4.05648 17.8684 4.1003 17.8702 4.10395V4.10578C18.0236 4.79593 18.1003 5.51164 18.1003 6.22917C18.1003 7.55287 17.841 8.83822 17.3298 10.0451C16.835 11.2136 16.1284 12.2616 15.2265 13.1635C14.5984 13.7916 13.8918 14.3302 13.1286 14.7629C12.8018 14.9491 12.4568 15.1189 12.108 15.2668C11.197 15.6539 10.2348 15.8967 9.24884 15.9917H9.24154L9.23825 15.9919Z" fill="white"/>
<path d="M24.8539 15.6229C24.8776 15.6302 24.8995 15.6338 24.9232 15.6338C24.9579 15.6338 24.9908 15.6247 25.0236 15.6101C25.0748 15.5827 25.1131 15.5389 25.1295 15.4823C25.292 14.9382 25.4198 14.3759 25.5056 13.8117C25.5203 13.7113 25.4618 13.6127 25.3632 13.5816C23.8314 13.0832 22.2284 12.8294 20.6034 12.8294H20.5559C20.4263 12.8294 20.3076 12.8988 20.2437 13.0102C19.8987 13.6127 19.5061 14.1951 19.0734 14.7392C19.0332 14.7903 19.0278 14.8579 19.0588 14.9163C19.0898 14.9729 19.1501 15.0057 19.2158 14.9984C19.6723 14.951 20.1378 14.9272 20.6016 14.9272C22.0604 14.9272 23.4918 15.1609 24.8539 15.6229Z" fill="white"/>
<path d="M5.95146 21.8488C6.44443 21.9565 7.52712 22.1154 8.28483 22.1154C9.17399 22.1154 10.0631 22.0387 10.9359 21.8871L10.945 21.8981L10.9833 21.878C12.6119 21.5841 14.4268 20.9103 16.0937 19.9847C16.3201 19.866 16.5538 19.7564 16.7875 19.6579C18.0327 19.1302 19.3181 18.8636 20.6034 18.8636C21.4615 18.8636 22.3087 18.9732 23.1248 19.1905C23.2088 19.2124 23.2983 19.1813 23.3494 19.1101C23.6927 18.6318 24.0012 18.1242 24.2714 17.602C24.3006 17.5454 24.3025 17.4815 24.2787 17.4231C24.255 17.3647 24.2075 17.3208 24.1473 17.3026C23.0043 16.9466 21.8121 16.7658 20.6034 16.7658C20.3314 16.7658 20.0557 16.7768 19.78 16.795L19.7709 16.7822L19.7343 16.7987C18.04 16.921 16.3256 17.4541 14.4925 18.4291C14.1493 18.6117 13.7969 18.7796 13.4463 18.9275C11.7739 19.6359 10.0376 19.9938 8.28483 19.9938C6.63066 19.9938 5.11891 19.7291 3.6601 19.1813C3.57611 19.1503 3.48482 19.1777 3.43188 19.2489C3.37893 19.3201 3.37893 19.415 3.4337 19.4862C4.1129 20.3699 4.81217 21.0619 5.69768 21.7338C5.77253 21.7904 5.85835 21.8287 5.95146 21.8488Z" fill="white"/>
<path d="M10.3626 23.9612C11.3065 24.184 12.2742 24.2972 13.24 24.2972C16.3055 24.2972 19.2469 23.1707 21.5254 21.1258L21.54 21.1294L21.5583 21.0947C21.593 21.0582 21.6131 21.0089 21.6131 20.9578C21.6131 20.861 21.54 20.7789 21.4451 20.7625L21.4323 20.7515L21.4104 20.7588L21.3556 20.7552C21.3301 20.7533 21.3082 20.7515 21.3082 20.7515C20.9777 20.7296 20.6272 20.715 20.6034 20.715C19.1081 20.715 17.6128 21.1386 16.1631 21.973C16.112 22.0003 15.0019 22.5755 14.372 22.8C13.198 23.2181 11.8835 23.4938 10.7679 23.5523L10.7442 23.5541C10.6869 23.5569 10.6389 23.5592 10.5988 23.5612C10.4292 23.5694 10.3988 23.5709 10.39 23.5723C10.3772 23.5723 10.3644 23.576 10.3534 23.5796C10.3516 23.5814 10.3516 23.5815 10.3498 23.5815L10.3297 23.5851V23.5888C10.2585 23.6198 10.211 23.691 10.211 23.7695C10.211 23.859 10.2694 23.9357 10.3534 23.9594L10.3626 23.9612Z" fill="white"/>
<path d="M107.225 3.76782H108.793C108.826 3.76782 108.857 3.78791 108.87 3.81894C108.961 4.04653 109.073 4.31735 109.194 4.60902L109.195 4.61075C109.525 5.40892 109.919 6.36348 110.142 7.01408C110.16 7.06702 110.12 7.12362 110.064 7.12362H108.53C108.495 7.12362 108.462 7.10171 108.451 7.06885C108.218 6.40986 107.798 5.42054 107.451 4.60237C107.34 4.33927 107.236 4.09387 107.148 3.88285C107.124 3.82807 107.166 3.76782 107.225 3.76782Z" fill="white"/>
<path d="M122.055 3.77146V5.50231H128.824L128.323 11.113H124.214L124.581 6.65621H122.848L122.344 12.8036H130.222V19.4933C130.222 19.853 129.884 20.189 129.547 20.2109H126.645C126.589 20.2109 126.549 20.2656 126.569 20.3204L127.078 21.792C127.1 21.8577 127.162 21.9015 127.233 21.9015H130.513C131.283 21.9015 131.915 21.2698 131.915 20.4993V11.2773C131.915 11.1878 131.842 11.113 131.75 11.113H130.054L130.71 3.77146H122.055Z" fill="white"/>
<path d="M61.976 7.43399C62.0308 7.43399 62.0819 7.46321 62.1075 7.51068L63.6101 11.3065C63.6375 11.3558 63.6028 11.416 63.5462 11.416H61.9559C61.8993 11.416 61.8482 11.385 61.8227 11.3339L60.4752 7.54172C60.4497 7.49242 60.4862 7.43399 60.5409 7.43399H61.976Z" fill="white"/>
<path fill-rule="evenodd" clip-rule="evenodd" d="M71.1397 12.0496H68.9177V5.12072C68.9177 5.04404 68.8556 4.98196 68.7789 4.98196H62.2919L62.6771 3.94856C62.7118 3.87918 62.6607 3.79885 62.584 3.79885H60.7838C60.7181 3.79885 60.6578 3.83537 60.6286 3.89379L60.2178 4.98196H55.2644C55.1877 4.98196 55.1257 5.04404 55.1257 5.12072L55.1311 12.0496H52.9913C52.911 12.0496 52.8453 12.1153 52.8453 12.1957V13.6015C52.8453 13.6819 52.911 13.7476 52.9913 13.7476H55.133C55.1311 16.5885 54.6966 19.3254 53.8933 21.9016C53.8732 21.9691 53.9225 22.0348 53.9918 22.0348H55.52C55.5803 22.0348 55.6351 21.9947 55.6533 21.9381C56.4238 19.4787 56.8565 16.8697 56.8985 14.1657V13.7458H67.1394V19.6777C67.1394 20.0283 66.8089 20.3588 66.4784 20.3807H64.5577C64.5029 20.3807 64.4646 20.4354 64.4828 20.4866L64.9813 21.9271C65.0032 21.991 65.0634 22.0348 65.1328 22.0348H67.4242C68.2458 22.0348 68.9177 21.3629 68.9177 20.5413V13.7458H70.6394C70.7033 13.7458 70.7599 13.7038 70.78 13.6435L71.2383 12.181C71.2602 12.1171 71.209 12.0496 71.1397 12.0496ZM56.904 12.0496V6.63795H67.1412V12.0496H56.904Z" fill="white"/>
<path d="M61.976 14.7554C62.0308 14.7554 62.0819 14.7846 62.1075 14.8321L63.6101 18.6279C63.6375 18.6772 63.6028 18.7375 63.5462 18.7375H61.9559C61.8993 18.7375 61.8482 18.7064 61.8227 18.6553L60.4752 14.8631C60.4497 14.8138 60.4862 14.7554 60.5409 14.7554H61.976Z" fill="white"/>
<path d="M37.505 16.0463L39.8219 15.7724C39.8767 15.7651 39.9187 15.818 39.9022 15.8765L39.3874 17.3608C39.3691 17.4138 39.3216 17.4521 39.265 17.4594L37.5068 17.684V22.1663C37.5068 22.2266 37.4575 22.2759 37.3973 22.2759H35.964C35.8873 22.2759 35.8253 22.2138 35.8253 22.1371V17.8976L32.1609 18.365C32.0952 18.3741 32.0349 18.3212 32.0349 18.2536V16.8295C32.0349 16.7547 32.0915 16.6908 32.1664 16.6816L35.8253 16.2489V13.3733H32.4804C32.3909 13.3733 32.3179 13.3021 32.3179 13.2163V11.7447C32.3179 11.7447 33.2965 9.77285 34.0287 6.98304H32.2924C32.2029 6.98304 32.1299 6.91001 32.1299 6.82055V5.45851C32.1299 5.36905 32.2029 5.29601 32.2924 5.29601H34.4121C34.5052 4.82313 34.5855 4.33747 34.6494 3.84086H36.5154C36.5154 3.84086 36.4059 4.41416 36.1941 5.29601H39.4513C39.5079 5.29601 39.5462 5.34896 39.528 5.40191L39.0186 6.87167C38.9948 6.9374 38.9346 6.98122 38.8652 6.98122H35.7559C35.3359 8.47654 34.748 10.2585 34.0104 11.7429H35.8216V8.62808C35.8216 8.56783 35.8709 8.51853 35.9312 8.51853H37.3936C37.4539 8.51853 37.5032 8.56783 37.5032 8.62808V11.7429H39.265C39.3216 11.7429 39.36 11.794 39.3417 11.8451L38.8323 13.2638C38.8086 13.3277 38.7483 13.3697 38.679 13.3697H37.505V16.0463Z" fill="white"/>
<path d="M50.7273 20.2967H46.0424V15.2703H49.2539C49.3178 15.2703 49.3744 15.2283 49.3945 15.1681L49.8528 13.7056C49.8729 13.6381 49.8236 13.5705 49.7542 13.5705H40.5139C40.4335 13.5705 40.3678 13.6362 40.3678 13.7166V15.1224C40.3678 15.2027 40.4335 15.2685 40.5139 15.2685H44.3626V20.2949H39.5791C39.4987 20.2949 39.433 20.3606 39.433 20.4409V21.8468C39.433 21.9271 39.4987 21.9929 39.5791 21.9929H50.1887C50.2526 21.9929 50.3092 21.9509 50.3293 21.8906L50.7986 20.3898C50.8132 20.3442 50.7785 20.2967 50.7273 20.2967Z" fill="white"/>
<path d="M45.1496 10.8647C43.8843 11.7173 42.2593 12.444 40.1907 12.7891C40.1268 12.7982 40.0684 12.7489 40.0666 12.685V11.6479C40.0666 11.5621 40.1232 11.4891 40.2053 11.4672C41.0324 11.2499 44.9378 10.1928 47.0812 6.08293H40.5504C40.4901 6.08293 40.4409 6.03363 40.4409 5.97338V4.51093C40.4409 4.45067 40.4901 4.40138 40.5504 4.40138H49.0549C49.1152 4.40138 49.1645 4.45067 49.1645 4.51093V5.9679C49.1645 6.04824 49.148 6.12675 49.1152 6.19795C48.9162 6.63614 48.1712 8.26475 46.4751 9.82032C48.1712 10.914 49.7688 11.3704 50.1833 11.4763C50.2453 11.4909 50.2873 11.5457 50.2873 11.6096V12.7197C50.2873 12.7671 50.2453 12.8018 50.1997 12.7945C48.1146 12.4531 46.4568 11.7228 45.1496 10.8647Z" fill="white"/>
<path fill-rule="evenodd" clip-rule="evenodd" d="M115.103 21.1475V12.8041C114.398 13.5602 113.834 13.8334 113.834 13.8334V12.0642C115.746 9.76914 115.911 6.91053 115.948 6.27812V6.27563C115.953 6.19422 115.955 6.15046 115.959 6.15046H113.976C113.896 6.15046 113.832 6.08656 113.832 6.00623V4.56385C113.834 4.48534 113.898 4.41961 113.978 4.41961H121.091C121.17 4.41961 121.225 4.49447 121.201 4.56932L120.745 6.02448C120.721 6.09934 120.651 6.15046 120.573 6.15046H117.744C117.586 7.65701 117.267 8.88809 116.877 9.88785H120.383C120.472 9.88785 120.544 9.95906 120.544 10.0485V19.3801C120.544 20.4446 119.68 21.3082 118.616 21.3082H115.264C115.174 21.3082 115.103 21.237 115.103 21.1475ZM116.779 11.5639H118.869V18.5859C118.869 19.161 118.398 19.6321 117.823 19.6321H116.779V11.5639Z" fill="white"/>
<path d="M128.957 15.5989H121.767C121.687 15.5989 121.623 15.6628 121.621 15.7432V17.1855C121.621 17.2659 121.685 17.3298 121.765 17.3298H128.438C128.517 17.3298 128.586 17.2786 128.61 17.2038L129.066 15.7486C129.09 15.6738 129.035 15.5989 128.957 15.5989Z" fill="white"/>
<path d="M111.829 20.3405C108.931 18.9245 106.568 16.8581 105.406 10.7096L111.333 9.9755C111.371 9.9755 111.404 9.95177 111.417 9.91526L111.935 8.37612C111.955 8.31952 111.911 8.25927 111.851 8.25927L105.137 9.05596C104.931 7.57138 104.783 5.88231 104.701 3.95405C104.698 3.87737 104.636 3.81529 104.559 3.81529H103.069C102.987 3.81529 102.921 3.87919 102.927 3.96136C102.947 4.26971 102.962 4.64794 102.979 5.08287L102.979 5.0841C103.022 6.18799 103.079 7.65763 103.279 9.27638L99.5416 9.7199C99.4923 9.7199 99.4522 9.76006 99.4522 9.80753V11.3467C99.4522 11.396 99.4923 11.4361 99.5416 11.4361L103.533 10.9417C104.331 15.2899 106.356 20.1529 111.791 21.9034C111.862 21.9271 111.939 21.8723 111.939 21.7975C111.939 21.706 111.939 21.5798 111.939 21.4405V21.4352C111.94 21.1084 111.94 20.7107 111.939 20.5158C111.941 20.4373 111.897 20.3734 111.829 20.3405Z" fill="white"/>
<path d="M97.6428 3.8372H99.2075C99.3061 3.8372 99.381 3.92666 99.3645 4.02343C99.0633 5.61735 98.4863 6.84793 97.8254 7.79186V21.9399C97.8254 22.0275 97.7542 22.0969 97.6684 22.0969H96.3118C96.2242 22.0969 96.1548 22.0257 96.1548 21.9399V9.55557C95.3862 10.1544 94.6997 10.4666 94.3655 10.5963C94.2633 10.6364 94.1519 10.5598 94.1519 10.4484V9.25067C94.1519 9.20137 94.1757 9.1539 94.2158 9.12469C96.7427 7.26969 97.3726 4.5803 97.4876 3.96501C97.5022 3.89015 97.5661 3.8372 97.6428 3.8372Z" fill="white"/>
<path d="M85.9249 18.648H84.3566C84.2981 18.648 84.2561 18.7083 84.2799 18.763C84.3678 18.974 84.4719 19.2194 84.5835 19.4825C84.9304 20.3005 85.3501 21.2903 85.5835 21.949C85.5944 21.9819 85.6273 22.0038 85.662 22.0038H87.1957C87.2523 22.0038 87.2924 21.9472 87.2742 21.8943C87.0511 21.2437 86.6569 20.2901 86.327 19.4919C86.2062 19.1996 86.0936 18.9272 86.0016 18.6991C85.9888 18.6681 85.9578 18.648 85.9249 18.648Z" fill="white"/>
<path fill-rule="evenodd" clip-rule="evenodd" d="M81.0647 12.3753V19.256C81.7712 18.9474 82.1163 18.7776 82.6586 18.3942C82.7097 18.3577 82.7809 18.3942 82.7791 18.4545V19.7417C82.7791 19.7818 82.7645 19.8202 82.7353 19.8494C82.1163 20.4774 80.988 21.279 79.4872 21.9965C79.4361 22.0221 79.3758 21.9837 79.3758 21.9271L79.3829 6.28349C79.3788 6.27539 79.3776 6.2669 79.3776 6.2582V4.72453C79.3776 4.67159 79.4215 4.62959 79.4726 4.62959H86.4964C87.9223 4.62959 89.3099 4.37033 90.63 3.85911C90.7669 3.80616 90.9166 3.90476 90.9166 4.05264V5.40008C90.9166 5.51328 90.8454 5.61552 90.7377 5.65204C89.4932 6.07743 88.1984 6.31077 87.1514 6.34788C87.1794 7.97707 87.2721 9.40046 87.4237 10.6547H91.992C92.0541 10.6547 92.0997 10.7168 92.0796 10.7752L91.5703 12.3052C91.5575 12.3436 91.5228 12.3673 91.4826 12.3673L87.6863 12.3702C88.4931 16.6383 90.1466 18.6215 92.3042 20.472C92.3517 20.5121 92.3791 20.5706 92.3791 20.6345C92.3804 20.8186 92.3798 21.2293 92.3794 21.5675C92.3792 21.7121 92.3791 21.8434 92.3791 21.9381C92.3791 22.0129 92.2988 22.0768 92.2312 22.044C88.3518 20.1937 86.6638 16.1528 85.9295 12.3715L81.0647 12.3753ZM81.0647 6.35314H85.3699C85.3854 7.51067 85.4426 9.0185 85.6539 10.6547H81.0647V6.35314Z" fill="white"/>
<path d="M76.8416 3.81164H78.4063C78.5049 3.81164 78.5797 3.9011 78.5633 3.9997C78.2621 5.59361 77.6851 6.8242 77.0242 7.76813V21.9143C77.0242 22.002 76.953 22.0714 76.8672 22.0714H75.5106C75.423 22.0714 75.3536 22.0002 75.3536 21.9143V9.53001C74.5849 10.1289 73.8984 10.4411 73.5643 10.5707C73.4621 10.6109 73.3507 10.5342 73.3507 10.4228V9.2251C73.3507 9.17581 73.3744 9.12834 73.4146 9.09912C75.9415 7.24412 76.5714 4.55474 76.6864 3.93945C76.701 3.86459 76.7649 3.81164 76.8416 3.81164Z" fill="white"/>
</svg>
