<svg xmlns="http://www.w3.org/2000/svg" xmlns:xlink="http://www.w3.org/1999/xlink" fill="none" version="1.1" width="24" height="24" viewBox="0 0 24 24"><g style="mix-blend-mode:passthrough"><g style="mix-blend-mode:passthrough"><path d="M8.76359,6.6011500000000005L8.67818,6.081022C8.63343,5.80853,8.81805,5.5513557,9.09055,5.50660828C9.117329999999999,5.50221008,9.14443,5.5,9.17157,5.5L15,5.5C15.27614,5.5,15.5,5.723858,15.5,6C15.5,6.040881,15.49499,6.081607,15.48507,6.121268L15.3488,6.6663499999999996Q15.14674,7.47459,14.490079999999999,7.98729Q14.09653,8.29457,13.6396,8.41769L14.413039999999999,11.12555Q15.46167,11.56236,16.18198,12.28268Q17.5,13.60069,17.5,15.46466C17.5,15.7408,17.2761,15.9647,17,15.9647L12.5,15.9647L12.5,20L12.5,20.5L11.5,20.5L11.5,20L11.5,15.9647L7,15.9647C6.723858,15.9647,6.5,15.7408,6.5,15.46466Q6.5,13.60069,7.81802,12.28268Q8.5383,11.5624,9.58638,11.125589999999999L10.36172,8.41272Q9.91199,8.28315,9.532910000000001,7.96124Q8.89847,7.42248,8.76359,6.6011500000000005ZM10.1802,7.19899Q10.53467,7.5,10.999690000000001,7.5C11.04617,7.5,11.092410000000001,7.50648,11.13709,7.5192499999999995C11.40261,7.59513,11.556329999999999,7.8718900000000005,11.480450000000001,8.1374L10.48014,11.6374C10.43652,11.790009999999999,10.32304,11.912849999999999,10.17435,11.96839Q9.17216,12.342749999999999,8.52512,12.98978Q7.6814800000000005,13.83343,7.53213,14.96466L16.467869999999998,14.96466Q16.31852,13.83343,15.47488,12.98978Q14.82787,12.342780000000001,13.82512,11.96842C13.67637,11.91289,13.56284,11.79,13.51923,11.637319999999999L12.51953,8.137319999999999C12.50678,8.09266,12.500309999999999,8.04644,12.500309999999999,8C12.500309999999999,7.72386,12.724160000000001,7.5,13.000309999999999,7.5Q13.489270000000001,7.5,13.87467,7.19909Q14.22865,6.92271,14.35755,6.5L9.76175,6.5Q9.84952,6.91819,10.1802,7.19899Z" fill="#0056FF" fill-opacity="1"/></g></g></svg>