<svg xmlns="http://www.w3.org/2000/svg" xmlns:xlink="http://www.w3.org/1999/xlink" fill="none" version="1.1" width="24" height="24" viewBox="0 0 24 24"><g style="mix-blend-mode:passthrough"><g style="mix-blend-mode:passthrough"><path d="M5.8281680942,6.867456456695557C5.8281671405,6.708993956695557,6.003669,6.613466756695557,6.136746,6.699494556695557L8.396825,8.160520456695556C8.518725,8.239320456695557,8.518725,8.417650456695556,8.396825,8.496450456695557L6.136761,9.957420456695557C6.003684,10.043440456695556,5.8281862736,9.947910456695556,5.8281853199,9.789450456695556L5.8281680942,6.867456456695557ZM18.999724999999998,8.000070456695557L9.999755,8.000070456695557L9.999755,9.000070456695557L18.999724999999998,9.000070456695557L18.999724999999998,8.000070456695557ZM5.8281680942,13.367520456695557C5.8281671405,13.209050456695557,6.003669,13.113530456695557,6.136746,13.199560456695558L8.396825,14.660580456695556C8.518725,14.739380456695557,8.518725,14.917710456695557,8.396825,14.996510456695557L6.136761,16.457480456695556C6.003684,16.543500456695554,5.8281862736,16.447980456695557,5.8281853199,16.289520456695556L5.8281680942,13.367520456695557ZM18.999724999999998,14.500130456695556L9.999755,14.500130456695556L9.999755,15.500130456695556L18.999724999999998,15.500130456695556L18.999724999999998,14.500130456695556Z" fill="#666666" fill-opacity="1"/></g></g></svg>