<?xml version="1.0" standalone="no"?><!DOCTYPE svg PUBLIC "-//W3C//DTD SVG 1.1//EN" "http://www.w3.org/Graphics/SVG/1.1/DTD/svg11.dtd"><svg t="1701749555043" class="icon" viewBox="0 0 1024 1024" version="1.1" xmlns="http://www.w3.org/2000/svg" p-id="1939" xmlns:xlink="http://www.w3.org/1999/xlink" width="200" height="200"><path d="M112.138667 317.888a16 16 0 0 1 17.973333-13.749333l80 10.666666a16 16 0 0 1 9.92 5.333334l149.333333 170.666666a16 16 0 0 1-24.074666 21.066667L199.925333 345.728l-74.037333-9.866667a16 16 0 0 1-13.749333-17.973333z" fill="#B05F31" p-id="1940"></path><path d="M219.786667 218.730667a10.666667 10.666667 0 0 1 9.493333 11.722666l-10.666667 101.333334a10.666667 10.666667 0 1 1-21.226666-2.24l10.666666-101.333334a10.666667 10.666667 0 0 1 11.733334-9.493333z" fill="#B05F31" p-id="1941"></path><path d="M780.341333 760.778667c-4.021333 145.034667-125.44 195.232-273.397333 191.136-147.946667-4.106667-266.410667-60.949333-262.4-205.973334 4.021333-145.034667 127.221333-259.285333 275.178667-255.189333 147.946667 4.106667 264.64 125.002667 260.618666 270.026667z" fill="#D0F0F2" p-id="1942"></path><path d="M708.746667 930.474667c-54.336 33.205333-126.421333 44.864-202.389334 42.762666-75.978667-2.112-147.306667-17.738667-199.722666-53.909333-53.738667-37.088-85.610667-94.485333-83.413334-173.984 4.362667-157.216 137.76-280.330667 297.088-275.914667 159.338667 4.416 285.717333 134.730667 281.354667 291.946667-2.197333 79.498667-37.205333 135.04-92.917333 169.098667z m-201.813334 21.44c147.968 4.096 269.386667-46.101333 273.408-191.136 4.021333-145.024-112.661333-265.92-260.618666-270.026667-147.946667-4.096-271.146667 110.144-275.178667 255.178667-4.010667 145.034667 114.442667 201.877333 262.4 205.973333z" fill="#5290BD" p-id="1943"></path><path d="M349.482667 598.730667a21.333333 21.333333 0 0 1-2.218667 30.08c-12.245333 10.581333-23.808 31.477333-29.824 59.36-5.92 27.392-5.888 59.018667 2.432 88.746666a21.333333 21.333333 0 0 1-41.077333 11.498667c-10.346667-36.938667-10.314667-75.637333-3.061334-109.248 7.146667-33.12 21.92-63.893333 43.669334-82.656a21.333333 21.333333 0 0 1 30.08 2.218667z" fill="#DFFDFF" p-id="1944"></path><path d="M479.637333 950.517333c120.458667-9.717333 211.893333-64.213333 215.370667-189.738666 3.701333-133.365333-94.677333-246.325333-225.578667-266.816a274.752 274.752 0 0 1 50.293334-3.2c147.946667 4.096 264.64 124.992 260.618666 270.016-4.021333 145.034667-125.44 195.232-273.397333 191.136a577.450667 577.450667 0 0 1-27.306667-1.386667z" fill="#A6E1E5" p-id="1945"></path><path d="M705.386667 722.848a11.424 11.424 0 1 1-22.858667 0 11.424 11.424 0 0 1 22.848 0zM751.637333 749.696a15.424 15.424 0 1 1-30.837333 0 15.424 15.424 0 0 1 30.837333 0zM743.925333 699.573333a11.562667 11.562667 0 1 1-23.125333 0 11.562667 11.562667 0 0 1 23.125333 0zM753.333333 815.946667a23.989333 23.989333 0 1 1-47.978666 0 23.989333 23.989333 0 0 1 47.978666 0zM705.386667 772.821333a15.424 15.424 0 1 1-30.848 0 15.424 15.424 0 0 1 30.837333 0zM712.661333 865.92a9.354667 9.354667 0 1 1-18.709333 0 9.354667 9.354667 0 0 1 18.709333 0zM680.224 895.338667a15.424 15.424 0 1 1-30.837333 0 15.424 15.424 0 0 1 30.837333 0zM682.528 842.784a15.424 15.424 0 1 1-30.837333 0 15.424 15.424 0 0 1 30.837333 0zM625.984 916.32a11.562667 11.562667 0 1 1-23.125333 0 11.562667 11.562667 0 0 1 23.125333 0z" fill="#81CFD2" p-id="1946"></path><path d="M714.666667 476.672c0 86.186667-76.565333 145.994667-197.333334 145.994667S320 562.858667 320 476.661333C320 390.485333 396.565333 330.666667 517.333333 330.666667S714.666667 390.474667 714.666667 476.672z" fill="#D0F0F2" p-id="1947"></path><path d="M674.101333 599.04C635.221333 628.266667 581.013333 644.010667 517.333333 644.010667c-63.669333 0-117.898667-15.744-156.768-44.96C321.205333 569.482667 298.666667 526.784 298.666667 476.672c0-50.112 22.538667-92.810667 61.898666-122.389333C399.445333 325.088 453.653333 309.333333 517.333333 309.333333c63.669333 0 117.898667 15.744 156.768 44.96C713.461333 383.850667 736 426.56 736 476.661333c0 50.112-22.538667 92.810667-61.898667 122.389334zM517.333333 622.677333c120.768 0 197.333333-59.808 197.333334-146.005333C714.666667 390.485333 638.101333 330.666667 517.333333 330.666667S320 390.474667 320 476.672c0 86.186667 76.565333 145.994667 197.333333 145.994667z" fill="#5290BD" p-id="1948"></path><path d="M435.178667 377.952a21.333333 21.333333 0 0 1-14.4 26.506667c-23.04 6.816-45.226667 41.418667-32.533334 79.466666a21.333333 21.333333 0 1 1-40.48 13.482667c-19.328-57.952 11.829333-119.349333 60.906667-133.866667a21.333333 21.333333 0 0 1 26.506667 14.4z" fill="#DFFDFF" p-id="1949"></path><path d="M474.666667 619.989333C570.517333 607.488 629.333333 552.213333 629.333333 476.661333c0-75.541333-58.816-130.816-154.666666-143.317333a330.026667 330.026667 0 0 1 42.666666-2.677333C638.101333 330.666667 714.666667 390.474667 714.666667 476.672c0 86.186667-76.565333 145.994667-197.333334 145.994667a330.026667 330.026667 0 0 1-42.666666-2.666667z" fill="#A5E1E4" p-id="1950"></path><path d="M654.005333 227.669333c0 84.810667-53.034667 143.658667-136.672 143.658667s-136.672-58.848-136.672-143.658667c0-84.821333 53.034667-143.669333 136.672-143.669333s136.672 58.848 136.672 143.669333z" fill="#D0F0F2" p-id="1951"></path><path d="M632.597333 345.888c-28.170667 30.08-68.202667 46.784-115.264 46.784-47.061333 0-87.093333-16.704-115.264-46.784-28.042667-29.930667-42.741333-71.381333-42.741333-118.218667 0-46.848 14.698667-88.298667 42.741333-118.229333 28.170667-30.08 68.202667-46.773333 115.264-46.773333 47.061333 0 87.093333 16.693333 115.264 46.773333 28.042667 29.930667 42.741333 71.381333 42.741334 118.229333 0 46.837333-14.698667 88.288-42.741334 118.218667zM517.333333 371.338667c83.637333 0 136.672-58.858667 136.672-143.68 0-84.8-53.034667-143.658667-136.672-143.658667s-136.672 58.848-136.672 143.669333c0 84.810667 53.034667 143.658667 136.672 143.658667z" fill="#5290BD" p-id="1952"></path><path d="M474.666667 359.882667c83.637333 0 136.672-58.848 136.672-143.68 0-61.685333-28.064-109.653333-75.562667-131.2 72.917333 8.053333 118.229333 64.266667 118.229333 142.666666 0 84.810667-53.034667 143.658667-136.672 143.658667-22.794667 0-43.317333-4.373333-61.12-12.448 5.973333 0.661333 12.128 1.002667 18.453334 1.002667z" fill="#A5E1E4" p-id="1953"></path><path d="M570.848 183.125333c4.192 16.618667-5.632 33.44-21.973333 37.568-16.32 4.128-32.96-6.005333-37.162667-22.624-4.202667-16.618667 5.632-33.44 21.962667-37.568 16.32-4.128 32.96 6.005333 37.173333 22.613334z" fill="#074894" p-id="1954"></path><path d="M591.530667 177.898667c6.997333 27.690667-9.322667 56.373333-37.418667 63.466666-28.096 7.114667-56.085333-10.368-63.082667-38.069333-6.997333-27.690667 9.322667-56.373333 37.418667-63.477333 28.096-7.104 56.074667 10.378667 63.082667 38.08z m-42.645334 42.794666c16.32-4.128 26.165333-20.949333 21.962667-37.568-4.202667-16.618667-20.853333-26.752-37.173333-22.613333-16.330667 4.117333-26.165333 20.938667-21.973334 37.557333 4.213333 16.618667 20.853333 26.752 37.184 22.613334z" fill="#F7FFFF" p-id="1955"></path><path d="M482.986667 188.416c-2.272 12.544-13.717333 20.96-25.557334 18.805333-11.84-2.144-19.584-14.048-17.301333-26.592 2.272-12.533333 13.717333-20.949333 25.546667-18.805333 11.84 2.154667 19.594667 14.058667 17.312 26.592z" fill="#074894" p-id="1956"></path><path d="M503.978667 192.234667c-4.170667 22.976-25.813333 40.437333-50.357334 35.978666-24.554667-4.458667-38.656-28.416-34.485333-51.392 4.170667-22.976 25.813333-40.448 50.346667-35.989333 24.554667 4.458667 38.666667 28.426667 34.496 51.402667z m-46.549334 14.986666c11.84 2.154667 23.285333-6.261333 25.557334-18.805333 2.282667-12.533333-5.472-24.437333-17.312-26.592-11.84-2.144-23.274667 6.272-25.546667 18.805333-2.282667 12.544 5.472 24.448 17.301333 26.592z" fill="#F7FFFF" p-id="1957"></path><path d="M851.509333 266.954667a21.333333 21.333333 0 0 1 17.536 24.554666l-16 96a21.333333 21.333333 0 0 1-8.554666 13.781334l-192 138.666666a21.333333 21.333333 0 0 1-24.981334-34.581333L812.394667 371.84l14.56-87.349333a21.333333 21.333333 0 0 1 24.554666-17.536z" fill="#8E4323" p-id="1958"></path><path d="M816 394.666667a16 16 0 0 1 16-16h96a16 16 0 0 1 0 32h-96a16 16 0 0 1-16-16z" fill="#8E4323" p-id="1959"></path><path d="M840.885333 297.418667a5.333333 5.333333 0 0 1 4.277334 6.208l-13.994667 76a5.333333 5.333333 0 0 1-2.069333 3.328l-105.333334 77.994666a5.333333 5.333333 0 0 1-6.357333-8.565333l103.648-76.757333 13.621333-73.92a5.333333 5.333333 0 0 1 6.208-4.288z" fill="#C15B30" p-id="1960"></path><path d="M458.133333 456.266667c-5.194667 17.28-21.706667 27.573333-36.864 23.008-15.157333-4.554667-23.232-22.261333-18.026666-39.541334 5.194667-17.28 21.706667-27.573333 36.864-23.008 15.157333 4.554667 23.232 22.261333 18.026666 39.541334z" fill="#08DDAA" p-id="1961"></path><path d="M478.570667 462.410667c-7.818667 25.973333-34.581333 45.984-63.445334 37.301333-28.874667-8.693333-40.128-40.149333-32.32-66.133333 7.818667-25.962667 34.581333-45.973333 63.445334-37.28 28.874667 8.682667 40.138667 40.149333 32.32 66.112z m-57.301334 16.874666c15.168 4.554667 31.669333-5.749333 36.864-23.018666 5.205333-17.28-2.869333-34.986667-18.026666-39.541334-15.157333-4.565333-31.669333 5.738667-36.864 23.008-5.205333 17.28 2.869333 34.986667 18.026666 39.552z" fill="#EEFEFF" p-id="1962"></path><path d="M408.853333 689.6c-1.013333 18.026667-14.645333 31.904-30.453333 31.018667-15.808-0.885333-27.808-16.202667-26.805333-34.208 1.013333-18.016 14.645333-31.893333 30.453333-31.018667 15.808 0.885333 27.797333 16.202667 26.794667 34.208z" fill="#08DDAA" p-id="1963"></path><path d="M430.144 690.794667c-1.514667 27.072-22.826667 52.8-52.928 51.125333-30.101333-1.674667-48.426667-29.621333-46.912-56.704 1.504-27.072 22.826667-52.8 52.928-51.125333 30.101333 1.674667 48.426667 29.621333 46.912 56.704z m-51.733333 29.824c15.797333 0.885333 29.429333-13.002667 30.432-31.018667 1.002667-18.005333-10.986667-33.322667-26.794667-34.208-15.808-0.885333-29.44 13.002667-30.453333 31.018667-1.002667 18.016 10.997333 33.322667 26.805333 34.208z" fill="#EEFEFF" p-id="1964"></path><path d="M520.832 235.306667c-12.8-21.866667-34.837333-16.288-44.64-10.730667-40.32 26.058667-95.466667 72.661333-106.048 80.853333-14.976 11.626667-4.725333 22.933333 6.112 20.8 10.325333-2.026667 92.373333-22.229333 142.826667-50.346666 9.152-5.109333 13.6-20.309333 1.749333-40.565334z" fill="#E58B04" p-id="1965"></path><path d="M470.666667 215.445333l0.266666-0.149333c6.208-3.52 16.277333-7.125333 27.274667-6.272 11.68 0.896 23.594667 6.826667 31.829333 20.906667 13.162667 22.485333 11.146667 45.834667-5.76 55.264-26.197333 14.602667-60.16 26.933333-88.458666 35.818666-28.362667 8.896-51.84 14.570667-57.493334 15.68-9.077333 1.792-19.658667-1.738667-24.309333-10.858666-5.386667-10.56 0.117333-21.482667 9.6-28.832 1.888-1.461333 5.482667-4.394667 10.346667-8.362667 20.501333-16.704 63.466667-51.712 96.448-73.024l0.256-0.16z m5.525333 9.130667c9.802667-5.546667 31.84-11.146667 44.64 10.741333 11.850667 20.256 7.402667 35.456-1.76 40.565334-50.432 28.117333-132.490667 48.32-142.816 50.346666-10.837333 2.133333-21.088-9.173333-6.112-20.8 2.090667-1.610667 5.930667-4.746667 11.061333-8.917333 20.768-16.928 62.645333-51.04 94.986667-71.936z" fill="#B36013" p-id="1966"></path><path d="M468.053333 230.986667c1.962667-2.336 5.578667-3.136 8.064-1.792 10.016 5.397333 30.282667 22.346667 33.514667 48.405333 0.32 2.613333-1.973333 5.258667-5.130667 5.92-3.157333 0.661333-5.984-0.917333-6.304-3.530667-2.826667-22.762667-20.821333-37.824-29.194666-42.336-2.496-1.344-2.922667-4.330667-0.96-6.666666zM434.88 257.653333c2.005333-2.304 5.632-3.061333 8.085333-1.674666 4.341333 2.442667 10.528 7.146667 15.616 13.546666s9.333333 14.837333 9.098667 24.725334c-0.053333 2.677333-2.677333 5.12-5.856 5.461333-3.168 0.341333-5.696-1.557333-5.632-4.234667 0.170667-7.466667-3.050667-14.208-7.434667-19.733333a48.106667 48.106667 0 0 0-13.056-11.392c-2.464-1.386667-2.826667-4.373333-0.821333-6.698667zM400.234667 281.962667c2.026667-2.304 5.653333-3.04 8.096-1.632 3.253333 1.856 7.786667 5.376 11.488 10.197333 3.701333 4.821333 6.794667 11.221333 6.506666 18.805333-0.096 2.677333-2.752 5.098667-5.92 5.408-3.178667 0.309333-5.664-1.621333-5.568-4.298666 0.192-5.184-1.92-9.898667-4.917333-13.792a32.469333 32.469333 0 0 0-8.917333-7.978667c-2.453333-1.397333-2.794667-4.394667-0.768-6.709333z" fill="#E16002" p-id="1967"></path><path d="M477.450667 230.218667a5.333333 5.333333 0 0 1-1.056 7.466666l-95.018667 71.509334a5.333333 5.333333 0 0 1-6.410667-8.533334l95.018667-71.498666a5.333333 5.333333 0 0 1 7.466667 1.056z" fill="#FFB444" p-id="1968"></path></svg>