<svg width="12" height="12" viewBox="0 0 12 12" fill="none" xmlns="http://www.w3.org/2000/svg">
<path fill-rule="evenodd" clip-rule="evenodd" d="M10.7961 6.8491C10.9279 6.71726 11.0018 6.53866 11.0018 6.35352V6.00006C11.0018 5.81398 10.9279 5.63539 10.7961 5.50448L5.988 0.700113C5.80472 0.517775 5.50831 0.517775 5.32504 0.701048L4.66582 1.36494C4.48441 1.54728 4.48441 1.84276 4.66675 2.02417L7.88431 5.23798L0.471439 5.27241C0.212426 5.27241 0.00390625 5.48187 0.00390625 5.73995V6.67501C0.00390625 6.93402 0.212426 7.14254 0.471439 7.14254L7.88898 7.10811L4.66208 10.3275C4.47974 10.5099 4.47974 10.8063 4.66301 10.9896L5.32784 11.6479C5.51018 11.8293 5.80566 11.8293 5.98706 11.6469L10.7961 6.8491Z" fill="white"/>
</svg>
