<svg width="16" height="16" viewBox="0 0 16 16" fill="none" xmlns="http://www.w3.org/2000/svg">
<path d="M5.5 2V14H4.5V2H3V14H13V2H5.5ZM2.5 1H13.5C13.646 1 13.7658 1.04683 13.8595 1.1405C13.9532 1.23417 14 1.354 14 1.5V14.5C14 14.646 13.9532 14.7658 13.8595 14.8595C13.7658 14.9532 13.646 15 13.5 15H2.5C2.354 15 2.23417 14.9532 2.1405 14.8595C2.04683 14.7658 2 14.646 2 14.5V1.5C2 1.354 2.04683 1.23417 2.1405 1.1405C2.23417 1.04683 2.354 1 2.5 1ZM7.5 4H10.5C10.8333 4 11 4.16667 11 4.5C11 4.83333 10.8333 5 10.5 5H7.5C7.16667 5 7 4.83333 7 4.5C7 4.16667 7.16667 4 7.5 4ZM7.5 7H10.5C10.8333 7 11 7.16667 11 7.5C11 7.83333 10.8333 8 10.5 8H7.5C7.16667 8 7 7.83333 7 7.5C7 7.16667 7.16667 7 7.5 7ZM7.5 10H10.5C10.8333 10 11 10.1667 11 10.5C11 10.8333 10.8333 11 10.5 11H7.5C7.16667 11 7 10.8333 7 10.5C7 10.1667 7.16667 10 7.5 10Z" fill="#808080"/>
</svg>
