<svg width="32" height="32" viewBox="0 0 32 32" fill="none" xmlns="http://www.w3.org/2000/svg">
<rect width="32" height="32" rx="16" fill="#337EFF" fill-opacity="0.6"/>
<path d="M12.1045 8.47091C12.1693 8.3014 12.3319 8.18945 12.5134 8.18945H14.4743C14.6557 8.18945 14.8184 8.3014 14.8832 8.4709L19.8103 21.3572C19.9199 21.6438 19.7082 21.9513 19.4014 21.9513H17.935C17.7508 21.9513 17.5863 21.8361 17.5235 21.663L16.4801 18.7896C16.4172 18.6165 16.2527 18.5012 16.0685 18.5012H10.9191C10.7349 18.5012 10.5705 18.6165 10.5076 18.7896L9.46421 21.663C9.40134 21.8361 9.23686 21.9513 9.05269 21.9513H7.58631C7.27944 21.9513 7.06778 21.6438 7.17738 21.3572L12.1045 8.47091ZM11.4986 16.0644C11.3956 16.3498 11.607 16.6509 11.9104 16.6509H15.0791C15.3819 16.6509 15.5933 16.3507 15.4913 16.0656L13.9139 11.6578C13.7756 11.2713 13.2293 11.2705 13.0899 11.6566L11.4986 16.0644Z" fill="white"/>
<path d="M19.4618 12.1445C19.1551 12.1445 18.9435 12.4517 19.0527 12.7383L22.4458 21.6403C22.5105 21.81 22.6733 21.9221 22.8549 21.9221L24.4144 21.9221C24.7211 21.9221 24.9328 21.615 24.8235 21.3284L21.4304 12.4264C21.3658 12.2567 21.203 12.1445 21.0213 12.1445H19.4618Z" fill="white"/>
<circle cx="19.0451" cy="9.38933" r="1.43816" fill="white"/>
</svg>
