<svg width="32" height="32" viewBox="0 0 32 32" fill="none" xmlns="http://www.w3.org/2000/svg">
<rect width="32" height="32" rx="16" fill="#337EFF" fill-opacity="0.6"/>
<path fill-rule="evenodd" clip-rule="evenodd" d="M23.4229 23.7963C23.7867 23.9947 23.6457 24.5475 23.2313 24.5475H16.0001C10.2563 24.5475 5.6001 21.4912 5.6001 15.7475C5.6001 10.0037 10.2563 6.14746 16.0001 6.14746C21.7439 6.14746 26.4001 10.0037 26.4001 15.7475C26.4001 20.0415 23.4229 21.856 21.9124 22.7035C21.8129 22.7722 21.8201 22.922 21.9263 22.9799L23.4229 23.7963ZM10.4001 17.3475C11.2837 17.3475 12.0001 15.9148 12.0001 14.1475C12.0001 12.3801 11.2837 10.9475 10.4001 10.9475C9.51644 10.9475 8.8001 12.3801 8.8001 14.1475C8.8001 15.9148 9.51644 17.3475 10.4001 17.3475ZM19.2001 17.3475C20.0837 17.3475 20.8001 15.9148 20.8001 14.1475C20.8001 12.3801 20.0837 10.9475 19.2001 10.9475C18.3165 10.9475 17.6001 12.3801 17.6001 14.1475C17.6001 15.9148 18.3165 17.3475 19.2001 17.3475Z" fill="white"/>
</svg>
