<svg xmlns="http://www.w3.org/2000/svg" xmlns:xlink="http://www.w3.org/1999/xlink" fill="none" version="1.1" width="10.40000057220459" height="10.40000057220459" viewBox="0 0 10.40000057220459 10.40000057220459"><g><path d="M6.00912,4.27564C6.00912,4.27564,6.00912,6.88765e-8,6.00912,6.88765e-8C6.00912,6.88765e-8,4.39134,0,4.39134,0C4.39134,0,4.39134,4.27564,4.39134,4.27564C4.39134,4.27564,0,4.27564,0,4.27564C0,4.27564,0,5.89342,0,5.89342C0,5.89342,4.39134,5.89342,4.39134,5.89342C4.39134,5.89342,4.39134,10.4,4.39134,10.4C4.39134,10.4,6.00911,10.4,6.00911,10.4C6.00911,10.4,6.00911,5.89342,6.00911,5.89342C6.00911,5.89342,10.4,5.89342,10.4,5.89342C10.4,5.89342,10.4,4.27564,10.4,4.27564C10.4,4.27564,6.00912,4.27564,6.00912,4.27564Z" fill="#4981F2" fill-opacity="1"/></g></svg>