<svg width="22" height="26" viewBox="0 0 22 26" fill="none" xmlns="http://www.w3.org/2000/svg">
<path fill-rule="evenodd" clip-rule="evenodd" d="M2.13333 2H12L20 10V23.8667C20 25.0449 19.0449 26 17.8667 26H2.13333C0.955126 26 0 25.0449 0 23.8667V4.13333C0 2.95513 0.955126 2 2.13333 2Z" fill="url(#paint0_linear_1654_8544)"/>
<g filter="url(#filter0_d_1654_8544)">
<path fill-rule="evenodd" clip-rule="evenodd" d="M12 2L20 10H14.1333C12.9551 10 12 9.04487 12 7.86667V2Z" fill="#FC8A8A"/>
</g>
<path d="M11.763 19.3513C10.9884 19.2937 10.2425 19.0061 9.64009 18.4883C8.46388 18.7472 7.34506 19.1211 6.22623 19.5814C5.33691 21.1635 4.50496 21.969 3.78776 21.969C3.64432 21.969 3.4722 21.9402 3.35744 21.8539C3.04188 21.7101 2.86975 21.3937 2.86975 21.0772C2.86975 20.8183 2.92713 20.0992 5.65247 18.9198C6.28361 17.7691 6.7713 16.5897 7.17293 15.3528C6.82868 14.6624 6.08279 12.9652 6.59917 12.1022C6.7713 11.7858 7.11555 11.6132 7.4885 11.642C7.77538 11.642 8.06225 11.7858 8.23438 12.0159C8.60732 12.5337 8.57864 13.6268 8.09094 15.2377C8.54995 16.1007 9.15239 16.8774 9.86959 17.539C10.472 17.4239 11.0745 17.3376 11.6769 17.3376C13.0253 17.3664 13.2261 17.9993 13.1974 18.3732C13.1974 19.3513 12.2507 19.3513 11.763 19.3513ZM3.73039 21.1348L3.81645 21.106C4.21808 20.9622 4.53365 20.6745 4.76315 20.3005C4.33283 20.4731 3.98858 20.7608 3.73039 21.1348ZM7.54587 12.5049H7.45981C7.43112 12.5049 7.37375 12.5049 7.34506 12.5337C7.23031 13.0227 7.31637 13.5405 7.51718 14.0008C7.68931 13.5117 7.68931 12.994 7.54587 12.5049ZM7.74669 16.676L7.718 16.7335L7.68931 16.7048C7.43112 17.3664 7.14424 18.028 6.82868 18.6609L6.88605 18.6321V18.6896C7.51718 18.4595 8.20569 18.2582 8.83683 18.1143L8.80814 18.0856H8.8942C8.46388 17.6541 8.06225 17.165 7.74669 16.676ZM11.6482 18.2006C11.39 18.2006 11.1605 18.2006 10.9024 18.2582C11.1892 18.402 11.4761 18.4595 11.763 18.4883C11.9638 18.517 12.1646 18.4883 12.3367 18.4307C12.3367 18.3444 12.222 18.2006 11.6482 18.2006Z" fill="white"/>
<defs>
<filter id="filter0_d_1654_8544" x="6" y="0" width="16" height="16" filterUnits="userSpaceOnUse" color-interpolation-filters="sRGB">
<feFlood flood-opacity="0" result="BackgroundImageFix"/>
<feColorMatrix in="SourceAlpha" type="matrix" values="0 0 0 0 0 0 0 0 0 0 0 0 0 0 0 0 0 0 127 0" result="hardAlpha"/>
<feOffset dx="-2" dy="2"/>
<feGaussianBlur stdDeviation="2"/>
<feColorMatrix type="matrix" values="0 0 0 0 0 0 0 0 0 0 0 0 0 0 0 0 0 0 0.1 0"/>
<feBlend mode="normal" in2="BackgroundImageFix" result="effect1_dropShadow_1654_8544"/>
<feBlend mode="normal" in="SourceGraphic" in2="effect1_dropShadow_1654_8544" result="shape"/>
</filter>
<linearGradient id="paint0_linear_1654_8544" x1="0" y1="2" x2="0" y2="26" gradientUnits="userSpaceOnUse">
<stop stop-color="#F54E4E"/>
<stop offset="1" stop-color="#EE3535"/>
</linearGradient>
</defs>
</svg>
