<svg xmlns="http://www.w3.org/2000/svg" xmlns:xlink="http://www.w3.org/1999/xlink" fill="none" version="1.1" width="12" height="12" viewBox="0 0 12 12"><defs><clipPath id="master_svg0_357_58334"><rect x="0" y="0" width="12" height="12" rx="0"/></clipPath></defs><g clip-path="url(#master_svg0_357_58334)"><g><path d="M1.7999755859375,10.998C1.6895186859375,10.998,1.5999755859375,11.0876,1.5999755859375,11.198C1.5999755859375,11.198,1.5999755859375,11.798,1.5999755859375,11.798C1.5999755859375,11.9085,1.6895184859375,11.998,1.7999755859375,11.998C1.7999755859375,11.998,9.3999755859375,11.998,9.3999755859375,11.998C9.5104355859375,11.998,9.5999755859375,11.9085,9.5999755859375,11.798C9.5999755859375,11.798,9.5999755859375,11.198,9.5999755859375,11.198C9.5999755859375,11.0876,9.5104355859375,10.998,9.3999755859375,10.998C9.3999755859375,10.998,1.7999755859375,10.998,1.7999755859375,10.998ZM10.2980255859375,0.5178715C10.1480655859375,0.50603211,9.9964655859375,0.5,9.8434555859375,0.5C7.1301055859375,0.5,4.7110655859375,2.73123,4.0967455859375,5.53173C4.0967455859375,5.53173,1.8432535859375,5.52586,1.8432535859375,5.52586C1.6744789859375,5.52542,1.5810756859375,5.72135,1.6876802859375,5.85219C1.6876802859375,5.85219,5.2226355859375,10.19097,5.2226355859375,10.19097C5.3824855859375,10.38716,5.6820655859375,10.38748,5.8423255859375,10.19161C5.8423255859375,10.19161,9.3768855859375,5.87173,9.3768855859375,5.87173C9.483575585937501,5.74133,9.3910955859375,5.54552,9.2226155859375,5.54508C9.2226155859375,5.54508,7.2489855859375,5.53994,7.2489855859375,5.53994C7.4926655859375,2.72184,8.5553055859375,1.7554,10.2980255859375,0.5178715Z" fill="#4E75EC" fill-opacity="1"/></g></g></svg>