<svg xmlns="http://www.w3.org/2000/svg" xmlns:xlink="http://www.w3.org/1999/xlink" fill="none" version="1.1" width="16" height="16" viewBox="0 0 16 16"><g><g><path d="M7.99995,1.00020407Q5.10046,1.000204008,3.0502,3.05046Q0.9999501812,5.10071,0.9999499944,8.0002Q0.9999489357,10.8997,3.0502,12.95Q5.10045,15.0002,7.99995,15.0002Q10.89944,15.0002,12.9497,12.95Q14.9999,10.8997,15,8.0002Q15,5.10071,12.9497,3.05046Q10.89944,1.000205254,7.99995,1.00020407ZM4.6398600000000005,3.27394Q6.1455,2.2016999999999998,7.99995,2.2016999999999998Q10.40177,2.2016999999999998,12.1001,3.90004Q13.7985,5.59838,13.7985,8.0002Q13.7985,9.85459,12.7263,11.3602L12.5113,11.662L4.33805,3.48888L4.6398600000000005,3.27394ZM3.27361,4.640219999999999L3.48855,4.3384L11.6618,12.5116L11.36,12.7265Q9.85437,13.7987,7.99995,13.7987Q5.59812,13.7987,3.89979,12.1004Q2.20144,10.40203,2.20144,8.0002Q2.20144,6.14583,3.27361,4.640219999999999Z" fill="#999999" fill-opacity="1"/></g></g></svg>