<svg xmlns="http://www.w3.org/2000/svg" xmlns:xlink="http://www.w3.org/1999/xlink" fill="none" version="1.1" width="12" height="12" viewBox="0 0 12 12"><defs><clipPath id="master_svg0_357_59328/357_58332"><rect x="0" y="0" width="12" height="12" rx="0"/></clipPath></defs><g clip-path="url(#master_svg0_357_59328/357_58332)"><g><path d="M1.80009765625,10.998C1.68964075625,10.998,1.60009765625,11.0876,1.60009765625,11.198C1.60009765625,11.198,1.60009765625,11.798,1.60009765625,11.798C1.60009765625,11.9085,1.68964055625,11.998,1.80009765625,11.998C1.80009765625,11.998,9.40009765625,11.998,9.40009765625,11.998C9.51055765625,11.998,9.60009765625,11.9085,9.60009765625,11.798C9.60009765625,11.798,9.60009765625,11.198,9.60009765625,11.198C9.60009765625,11.0876,9.51055765625,10.998,9.40009765625,10.998C9.40009765625,10.998,1.80009765625,10.998,1.80009765625,10.998ZM10.29814765625,0.5178715C10.14818765625,0.50603211,9.99658765625,0.5,9.84357765625,0.5C7.13022765625,0.5,4.71118765625,2.73123,4.09686765625,5.53173C4.09686765625,5.53173,1.84337565625,5.52586,1.84337565625,5.52586C1.67460105625,5.52542,1.58119775625,5.72135,1.68780235625,5.85219C1.68780235625,5.85219,5.22275765625,10.19097,5.22275765625,10.19097C5.38260765625,10.38716,5.68218765625,10.38748,5.84244765625,10.19161C5.84244765625,10.19161,9.37700765625,5.87173,9.37700765625,5.87173C9.483697656250001,5.74133,9.39121765625,5.54552,9.22273765625,5.54508C9.22273765625,5.54508,7.24910765625,5.53994,7.24910765625,5.53994C7.49278765625,2.72184,8.55542765625,1.7554,10.29814765625,0.5178715Z" fill="#999999" fill-opacity="1"/></g></g></svg>