<?xml version="1.0" standalone="no"?><!DOCTYPE svg PUBLIC "-//W3C//DTD SVG 1.1//EN" "http://www.w3.org/Graphics/SVG/1.1/DTD/svg11.dtd"><svg t="1763447154505" class="icon" viewBox="0 0 1024 1024" version="1.1" xmlns="http://www.w3.org/2000/svg" p-id="17415" xmlns:xlink="http://www.w3.org/1999/xlink" width="200" height="200"><path d="M512.384 160h285.12c70.72 0 130.496 59.776 130.496 130.496V541.44c0 70.72-54.208 130.496-124.928 130.496H672L416 256c0-53.056 43.392-96 96.384-96M384 320l352 576H32L384 320z" fill="#1FA2FF" fill-opacity=".2" p-id="17416"></path><path d="M384 256a128 128 0 0 1 128-128h288A160 160 0 0 1 960 288v256a160 160 0 0 1-160 160h-128v-64h128A96 96 0 0 0 896 544v-256A96 96 0 0 0 800 192H512a64 64 0 0 0-64 64H384z m0 64L32 896h704L384 320z m0 122.752L621.888 832H146.112L384 442.752z" fill="#1FA2FF" p-id="17417"></path></svg>